<svg width="1281" height="374" viewBox="0 0 1281 374" fill="none" xmlns="http://www.w3.org/2000/svg">
<g clip-path="url(#clip0_1122_50321)">
<rect width="1281" height="374" fill="white"/>
<rect x="-209" width="1490" height="374" fill="white"/>
<path d="M105.539 263H107.016L108.148 259.773H112.633L113.766 263H115.242L111.086 251.727H109.695L105.539 263ZM110.328 253.547H110.453L112.219 258.578H108.562L110.328 253.547ZM123.743 263.148C124.977 263.148 125.829 262.641 126.243 261.742H126.368V263H127.727V254.578H126.368V259.562C126.368 261.039 125.579 261.945 124.094 261.945C122.751 261.945 122.204 261.219 122.204 259.703V254.578H120.844V260.031C120.844 262.023 121.829 263.148 123.743 263.148ZM132.837 263.148C134.751 263.148 136.212 262.109 136.212 260.609V260.594C136.212 259.391 135.446 258.703 133.86 258.32L132.563 258.008C131.571 257.766 131.149 257.406 131.149 256.836V256.82C131.149 256.078 131.884 255.562 132.884 255.562C133.899 255.562 134.556 256.023 134.735 256.688H136.071C135.884 255.312 134.657 254.43 132.892 254.43C131.103 254.43 129.759 255.484 129.759 256.883V256.891C129.759 258.102 130.47 258.789 132.048 259.164L133.353 259.477C134.392 259.727 134.821 260.125 134.821 260.695V260.711C134.821 261.477 134.017 262.016 132.884 262.016C131.806 262.016 131.134 261.555 130.907 260.852H129.517C129.673 262.242 130.962 263.148 132.837 263.148ZM141.439 263.148C143.423 263.148 144.626 262.023 144.915 260.883L144.931 260.82H143.572L143.54 260.891C143.314 261.398 142.611 261.938 141.47 261.938C139.97 261.938 139.009 260.922 138.97 259.18H145.032V258.648C145.032 256.133 143.642 254.43 141.353 254.43C139.064 254.43 137.579 256.211 137.579 258.812V258.82C137.579 261.461 139.032 263.148 141.439 263.148ZM141.345 255.641C142.587 255.641 143.509 256.43 143.65 258.094H138.993C139.142 256.492 140.095 255.641 141.345 255.641ZM146.822 263H148.181V257.781C148.181 256.547 149.103 255.727 150.4 255.727C150.697 255.727 150.955 255.758 151.236 255.805V254.484C151.103 254.461 150.814 254.43 150.556 254.43C149.416 254.43 148.627 254.945 148.306 255.828H148.181V254.578H146.822V263ZM158.416 263H159.776L161.651 256.484H161.776L163.658 263H165.026L167.385 254.578H166.033L164.377 261.312H164.252L162.369 254.578H161.08L159.197 261.312H159.072L157.416 254.578H156.057L158.416 263ZM170.94 263.148C172.073 263.148 172.956 262.656 173.487 261.758H173.612V263H174.971V257.234C174.971 255.484 173.823 254.43 171.768 254.43C169.971 254.43 168.69 255.32 168.471 256.641L168.463 256.688H169.823L169.831 256.664C170.049 256.008 170.713 255.633 171.721 255.633C172.979 255.633 173.612 256.195 173.612 257.234V258L171.198 258.148C169.237 258.266 168.127 259.133 168.127 260.633V260.648C168.127 262.18 169.338 263.148 170.94 263.148ZM169.518 260.617V260.602C169.518 259.766 170.081 259.312 171.362 259.234L173.612 259.094V259.859C173.612 261.062 172.604 261.969 171.221 261.969C170.245 261.969 169.518 261.469 169.518 260.617ZM177.136 263H178.495V258.016C178.495 256.539 179.347 255.633 180.69 255.633C182.034 255.633 182.659 256.359 182.659 257.875V263H184.018V257.547C184.018 255.547 182.964 254.43 181.073 254.43C179.831 254.43 179.042 254.953 178.62 255.844H178.495V254.578H177.136V263ZM189.152 263.062C189.417 263.062 189.675 263.031 189.941 262.984V261.828C189.691 261.852 189.558 261.859 189.316 261.859C188.441 261.859 188.097 261.461 188.097 260.469V255.703H189.941V254.578H188.097V252.398H186.691V254.578H185.363V255.703H186.691V260.812C186.691 262.422 187.417 263.062 189.152 263.062ZM194.386 263.148C196.3 263.148 197.761 262.109 197.761 260.609V260.594C197.761 259.391 196.996 258.703 195.41 258.32L194.113 258.008C193.121 257.766 192.699 257.406 192.699 256.836V256.82C192.699 256.078 193.433 255.562 194.433 255.562C195.449 255.562 196.105 256.023 196.285 256.688H197.621C197.433 255.312 196.207 254.43 194.441 254.43C192.652 254.43 191.308 255.484 191.308 256.883V256.891C191.308 258.102 192.019 258.789 193.597 259.164L194.902 259.477C195.941 259.727 196.371 260.125 196.371 260.695V260.711C196.371 261.477 195.566 262.016 194.433 262.016C193.355 262.016 192.683 261.555 192.457 260.852H191.066C191.222 262.242 192.511 263.148 194.386 263.148ZM206.738 263.062C207.004 263.062 207.262 263.031 207.527 262.984V261.828C207.277 261.852 207.145 261.859 206.902 261.859C206.027 261.859 205.684 261.461 205.684 260.469V255.703H207.527V254.578H205.684V252.398H204.277V254.578H202.949V255.703H204.277V260.812C204.277 262.422 205.004 263.062 206.738 263.062ZM212.575 263.148C214.973 263.148 216.457 261.492 216.457 258.797V258.781C216.457 256.078 214.973 254.43 212.575 254.43C210.176 254.43 208.692 256.078 208.692 258.781V258.797C208.692 261.492 210.176 263.148 212.575 263.148ZM212.575 261.945C210.981 261.945 210.082 260.781 210.082 258.797V258.781C210.082 256.789 210.981 255.633 212.575 255.633C214.168 255.633 215.067 256.789 215.067 258.781V258.797C215.067 260.781 214.168 261.945 212.575 261.945ZM106.266 286.812H107.625V282.672H107.75C108.211 283.57 109.219 284.148 110.375 284.148C112.516 284.148 113.906 282.438 113.906 279.797V279.781C113.906 277.156 112.508 275.43 110.375 275.43C109.203 275.43 108.266 275.984 107.75 276.922H107.625V275.578H106.266V286.812ZM110.062 282.945C108.531 282.945 107.594 281.742 107.594 279.797V279.781C107.594 277.836 108.531 276.633 110.062 276.633C111.602 276.633 112.516 277.82 112.516 279.781V279.797C112.516 281.758 111.602 282.945 110.062 282.945ZM118.024 284.148C119.157 284.148 120.039 283.656 120.571 282.758H120.696V284H122.055V278.234C122.055 276.484 120.907 275.43 118.852 275.43C117.055 275.43 115.774 276.32 115.555 277.641L115.547 277.688H116.907L116.914 277.664C117.133 277.008 117.797 276.633 118.805 276.633C120.063 276.633 120.696 277.195 120.696 278.234V279L118.282 279.148C116.321 279.266 115.211 280.133 115.211 281.633V281.648C115.211 283.18 116.422 284.148 118.024 284.148ZM116.602 281.617V281.602C116.602 280.766 117.164 280.312 118.446 280.234L120.696 280.094V280.859C120.696 282.062 119.688 282.969 118.305 282.969C117.328 282.969 116.602 282.469 116.602 281.617ZM124.626 286.953C126.118 286.953 126.813 286.406 127.508 284.516L130.798 275.578H129.368L127.063 282.508H126.938L124.626 275.578H123.173L126.29 284.008L126.133 284.508C125.829 285.477 125.36 285.828 124.587 285.828C124.399 285.828 124.188 285.82 124.024 285.789V286.906C124.212 286.938 124.446 286.953 124.626 286.953ZM138.095 284H139.454L141.329 277.484H141.454L143.337 284H144.704L147.064 275.578H145.712L144.056 282.312H143.931L142.048 275.578H140.759L138.876 282.312H138.751L137.095 275.578H135.736L138.095 284ZM149.259 273.953C149.775 273.953 150.197 273.531 150.197 273.016C150.197 272.5 149.775 272.078 149.259 272.078C148.744 272.078 148.322 272.5 148.322 273.016C148.322 273.531 148.744 273.953 149.259 273.953ZM148.572 284H149.931V275.578H148.572V284ZM155.166 284.062C155.432 284.062 155.689 284.031 155.955 283.984V282.828C155.705 282.852 155.572 282.859 155.33 282.859C154.455 282.859 154.111 282.461 154.111 281.469V276.703H155.955V275.578H154.111V273.398H152.705V275.578H151.377V276.703H152.705V281.812C152.705 283.422 153.432 284.062 155.166 284.062ZM157.744 284H159.104V279.016C159.104 277.539 159.955 276.633 161.299 276.633C162.643 276.633 163.268 277.359 163.268 278.875V284H164.627V278.547C164.627 276.547 163.572 275.43 161.682 275.43C160.44 275.43 159.651 275.953 159.229 276.844H159.104V272.234H157.744V284ZM174.393 284H175.784L179.94 272.727H178.464L175.151 282.18H175.026L171.714 272.727H170.237L174.393 284ZM182.144 273.953C182.659 273.953 183.081 273.531 183.081 273.016C183.081 272.5 182.659 272.078 182.144 272.078C181.628 272.078 181.206 272.5 181.206 273.016C181.206 273.531 181.628 273.953 182.144 273.953ZM181.456 284H182.816V275.578H181.456V284ZM185.058 286.812H186.418V282.672H186.543C187.003 283.57 188.011 284.148 189.168 284.148C191.308 284.148 192.699 282.438 192.699 279.797V279.781C192.699 277.156 191.3 275.43 189.168 275.43C187.996 275.43 187.058 275.984 186.543 276.922H186.418V275.578H185.058V286.812ZM188.855 282.945C187.324 282.945 186.386 281.742 186.386 279.797V279.781C186.386 277.836 187.324 276.633 188.855 276.633C190.394 276.633 191.308 277.82 191.308 279.781V279.797C191.308 281.758 190.394 282.945 188.855 282.945ZM194.504 286.812H195.863V282.672H195.988C196.449 283.57 197.457 284.148 198.613 284.148C200.754 284.148 202.144 282.438 202.144 279.797V279.781C202.144 277.156 200.746 275.43 198.613 275.43C197.441 275.43 196.504 275.984 195.988 276.922H195.863V275.578H194.504V286.812ZM198.301 282.945C196.769 282.945 195.832 281.742 195.832 279.797V279.781C195.832 277.836 196.769 276.633 198.301 276.633C199.84 276.633 200.754 277.82 200.754 279.781V279.797C200.754 281.758 199.84 282.945 198.301 282.945ZM206.84 284.148C208.754 284.148 210.215 283.109 210.215 281.609V281.594C210.215 280.391 209.449 279.703 207.863 279.32L206.567 279.008C205.574 278.766 205.152 278.406 205.152 277.836V277.82C205.152 277.078 205.887 276.562 206.887 276.562C207.902 276.562 208.559 277.023 208.738 277.688H210.074C209.887 276.312 208.66 275.43 206.895 275.43C205.106 275.43 203.762 276.484 203.762 277.883V277.891C203.762 279.102 204.473 279.789 206.051 280.164L207.356 280.477C208.395 280.727 208.824 281.125 208.824 281.695V281.711C208.824 282.477 208.02 283.016 206.887 283.016C205.809 283.016 205.137 282.555 204.91 281.852H203.52C203.676 283.242 204.965 284.148 206.84 284.148Z" fill="black"/>
<path d="M309.438 263H310.75V254.391H310.836L314.398 263H315.586L319.148 254.391H319.234V263H320.547V251.727H318.914L315.055 261.133H314.93L311.07 251.727H309.438V263ZM326.368 263.148C328.352 263.148 329.555 262.023 329.844 260.883L329.86 260.82H328.5L328.469 260.891C328.243 261.398 327.539 261.938 326.399 261.938C324.899 261.938 323.938 260.922 323.899 259.18H329.961V258.648C329.961 256.133 328.571 254.43 326.282 254.43C323.993 254.43 322.508 256.211 322.508 258.812V258.82C322.508 261.461 323.961 263.148 326.368 263.148ZM326.274 255.641C327.516 255.641 328.438 256.43 328.578 258.094H323.922C324.071 256.492 325.024 255.641 326.274 255.641ZM331.751 263H333.11V257.781C333.11 256.547 334.032 255.727 335.329 255.727C335.626 255.727 335.883 255.758 336.165 255.805V254.484C336.032 254.461 335.743 254.43 335.485 254.43C334.344 254.43 333.555 254.945 333.235 255.828H333.11V254.578H331.751V263ZM340.735 263.148C342.759 263.148 343.892 262.062 344.235 260.539L344.251 260.453L342.907 260.461L342.892 260.508C342.579 261.445 341.86 261.945 340.728 261.945C339.228 261.945 338.259 260.703 338.259 258.766V258.75C338.259 256.852 339.212 255.633 340.728 255.633C341.938 255.633 342.688 256.305 342.899 257.133L342.907 257.156H344.259L344.251 257.109C344.001 255.609 342.774 254.43 340.728 254.43C338.368 254.43 336.868 256.133 336.868 258.75V258.766C336.868 261.438 338.376 263.148 340.735 263.148ZM346.001 263H347.361V258.016C347.361 256.539 348.212 255.633 349.556 255.633C350.9 255.633 351.525 256.359 351.525 257.875V263H352.884V257.547C352.884 255.547 351.829 254.43 349.939 254.43C348.697 254.43 347.908 254.953 347.486 255.844H347.361V251.234H346.001V263ZM357.338 263.148C358.47 263.148 359.353 262.656 359.884 261.758H360.009V263H361.369V257.234C361.369 255.484 360.22 254.43 358.166 254.43C356.369 254.43 355.088 255.32 354.869 256.641L354.861 256.688H356.22L356.228 256.664C356.447 256.008 357.111 255.633 358.119 255.633C359.377 255.633 360.009 256.195 360.009 257.234V258L357.595 258.148C355.634 258.266 354.525 259.133 354.525 260.633V260.648C354.525 262.18 355.736 263.148 357.338 263.148ZM355.916 260.617V260.602C355.916 259.766 356.478 259.312 357.759 259.234L360.009 259.094V259.859C360.009 261.062 359.002 261.969 357.619 261.969C356.642 261.969 355.916 261.469 355.916 260.617ZM363.533 263H364.893V258.016C364.893 256.539 365.744 255.633 367.088 255.633C368.432 255.633 369.057 256.359 369.057 257.875V263H370.416V257.547C370.416 255.547 369.361 254.43 367.471 254.43C366.228 254.43 365.439 254.953 365.018 255.844H364.893V254.578H363.533V263ZM375.549 263.062C375.815 263.062 376.072 263.031 376.338 262.984V261.828C376.088 261.852 375.955 261.859 375.713 261.859C374.838 261.859 374.494 261.461 374.494 260.469V255.703H376.338V254.578H374.494V252.398H373.088V254.578H371.76V255.703H373.088V260.812C373.088 262.422 373.815 263.062 375.549 263.062ZM385.714 265.969C388.011 265.969 389.464 264.766 389.464 262.883V254.578H388.104V255.969H388.011C387.495 255.016 386.573 254.43 385.386 254.43C383.183 254.43 381.823 256.141 381.823 258.5V258.516C381.823 260.875 383.175 262.562 385.354 262.562C386.511 262.562 387.464 262.039 387.995 261.109H388.12V262.812C388.12 264.055 387.222 264.766 385.714 264.766C384.503 264.766 383.753 264.312 383.604 263.672L383.597 263.664H382.19L382.175 263.672C382.386 265.055 383.683 265.969 385.714 265.969ZM385.651 261.359C384.089 261.359 383.214 260.188 383.214 258.516V258.5C383.214 256.828 384.089 255.633 385.651 255.633C387.206 255.633 388.151 256.828 388.151 258.5V258.516C388.151 260.188 387.214 261.359 385.651 261.359ZM395.113 263.148C397.097 263.148 398.3 262.023 398.589 260.883L398.605 260.82H397.245L397.214 260.891C396.988 261.398 396.284 261.938 395.144 261.938C393.644 261.938 392.683 260.922 392.644 259.18H398.706V258.648C398.706 256.133 397.316 254.43 395.027 254.43C392.738 254.43 391.253 256.211 391.253 258.812V258.82C391.253 261.461 392.706 263.148 395.113 263.148ZM395.019 255.641C396.261 255.641 397.183 256.43 397.323 258.094H392.667C392.816 256.492 393.769 255.641 395.019 255.641ZM400.496 263H401.855V258.016C401.855 256.539 402.707 255.633 404.05 255.633C405.394 255.633 406.019 256.359 406.019 257.875V263H407.378V257.547C407.378 255.547 406.324 254.43 404.433 254.43C403.191 254.43 402.402 254.953 401.98 255.844H401.855V254.578H400.496V263ZM412.957 263.148C414.941 263.148 416.144 262.023 416.433 260.883L416.449 260.82H415.09L415.058 260.891C414.832 261.398 414.129 261.938 412.988 261.938C411.488 261.938 410.527 260.922 410.488 259.18H416.551V258.648C416.551 256.133 415.16 254.43 412.871 254.43C410.582 254.43 409.098 256.211 409.098 258.812V258.82C409.098 261.461 410.551 263.148 412.957 263.148ZM412.863 255.641C414.105 255.641 415.027 256.43 415.168 258.094H410.512C410.66 256.492 411.613 255.641 412.863 255.641ZM418.34 263H419.699V257.781C419.699 256.547 420.621 255.727 421.918 255.727C422.215 255.727 422.473 255.758 422.754 255.805V254.484C422.621 254.461 422.332 254.43 422.074 254.43C420.934 254.43 420.145 254.945 419.824 255.828H419.699V254.578H418.34V263ZM426.426 263.148C427.559 263.148 428.442 262.656 428.973 261.758H429.098V263H430.457V257.234C430.457 255.484 429.309 254.43 427.254 254.43C425.457 254.43 424.176 255.32 423.957 256.641L423.95 256.688H425.309L425.317 256.664C425.536 256.008 426.2 255.633 427.207 255.633C428.465 255.633 429.098 256.195 429.098 257.234V258L426.684 258.148C424.723 258.266 423.614 259.133 423.614 260.633V260.648C423.614 262.18 424.825 263.148 426.426 263.148ZM425.004 260.617V260.602C425.004 259.766 425.567 259.312 426.848 259.234L429.098 259.094V259.859C429.098 261.062 428.09 261.969 426.707 261.969C425.731 261.969 425.004 261.469 425.004 260.617ZM435.614 263.062C435.88 263.062 436.137 263.031 436.403 262.984V261.828C436.153 261.852 436.02 261.859 435.778 261.859C434.903 261.859 434.559 261.461 434.559 260.469V255.703H436.403V254.578H434.559V252.398H433.153V254.578H431.825V255.703H433.153V260.812C433.153 262.422 433.88 263.062 435.614 263.062ZM441.427 263.148C443.411 263.148 444.614 262.023 444.903 260.883L444.919 260.82H443.56L443.528 260.891C443.302 261.398 442.599 261.938 441.458 261.938C439.958 261.938 438.997 260.922 438.958 259.18H445.021V258.648C445.021 256.133 443.63 254.43 441.341 254.43C439.052 254.43 437.568 256.211 437.568 258.812V258.82C437.568 261.461 439.021 263.148 441.427 263.148ZM441.333 255.641C442.575 255.641 443.497 256.43 443.638 258.094H438.982C439.13 256.492 440.083 255.641 441.333 255.641ZM449.701 263.148C451.615 263.148 453.076 262.109 453.076 260.609V260.594C453.076 259.391 452.31 258.703 450.724 258.32L449.427 258.008C448.435 257.766 448.013 257.406 448.013 256.836V256.82C448.013 256.078 448.747 255.562 449.747 255.562C450.763 255.562 451.419 256.023 451.599 256.688H452.935C452.747 255.312 451.521 254.43 449.755 254.43C447.966 254.43 446.622 255.484 446.622 256.883V256.891C446.622 258.102 447.333 258.789 448.912 259.164L450.216 259.477C451.255 259.727 451.685 260.125 451.685 260.695V260.711C451.685 261.477 450.88 262.016 449.747 262.016C448.669 262.016 447.997 261.555 447.771 260.852H446.38C446.537 262.242 447.826 263.148 449.701 263.148ZM461.373 263.148C462.506 263.148 463.389 262.656 463.92 261.758H464.045V263H465.404V257.234C465.404 255.484 464.256 254.43 462.201 254.43C460.404 254.43 459.123 255.32 458.904 256.641L458.897 256.688H460.256L460.264 256.664C460.482 256.008 461.147 255.633 462.154 255.633C463.412 255.633 464.045 256.195 464.045 257.234V258L461.631 258.148C459.67 258.266 458.561 259.133 458.561 260.633V260.648C458.561 262.18 459.772 263.148 461.373 263.148ZM459.951 260.617V260.602C459.951 259.766 460.514 259.312 461.795 259.234L464.045 259.094V259.859C464.045 261.062 463.037 261.969 461.654 261.969C460.678 261.969 459.951 261.469 459.951 260.617ZM476.671 263.266C477.428 263.266 478.116 263.141 478.733 262.891L479.733 264.273H481.311L479.842 262.258C481.124 261.25 481.842 259.547 481.842 257.367V257.352C481.842 253.742 479.874 251.461 476.671 251.461C473.483 251.461 471.499 253.734 471.499 257.352V257.367C471.499 260.969 473.436 263.266 476.671 263.266ZM476.671 261.969C474.327 261.969 472.936 260.156 472.936 257.367V257.352C472.936 254.539 474.374 252.758 476.671 252.758C478.975 252.758 480.405 254.539 480.405 257.352V257.367C480.405 259.016 479.905 260.328 479.022 261.125L478.038 259.773H476.46L477.913 261.773C477.538 261.898 477.116 261.969 476.671 261.969ZM483.96 263H485.366V258.539H488.14L490.554 263H492.202L489.593 258.32C491.007 257.875 491.858 256.656 491.858 255.094V255.078C491.858 253.055 490.437 251.727 488.265 251.727H483.96V263ZM485.366 257.289V252.977H488.077C489.53 252.977 490.405 253.781 490.405 255.125V255.141C490.405 256.516 489.585 257.289 488.14 257.289H485.366ZM312.711 284.148C314.734 284.148 315.867 283.062 316.211 281.539L316.227 281.453L314.883 281.461L314.867 281.508C314.555 282.445 313.836 282.945 312.703 282.945C311.203 282.945 310.234 281.703 310.234 279.766V279.75C310.234 277.852 311.188 276.633 312.703 276.633C313.914 276.633 314.664 277.305 314.875 278.133L314.883 278.156H316.234L316.227 278.109C315.977 276.609 314.75 275.43 312.703 275.43C310.344 275.43 308.844 277.133 308.844 279.75V279.766C308.844 282.438 310.352 284.148 312.711 284.148ZM321.36 284.148C323.758 284.148 325.243 282.492 325.243 279.797V279.781C325.243 277.078 323.758 275.43 321.36 275.43C318.961 275.43 317.477 277.078 317.477 279.781V279.797C317.477 282.492 318.961 284.148 321.36 284.148ZM321.36 282.945C319.766 282.945 318.868 281.781 318.868 279.797V279.781C318.868 277.789 319.766 276.633 321.36 276.633C322.953 276.633 323.852 277.789 323.852 279.781V279.797C323.852 281.781 322.953 282.945 321.36 282.945ZM330.141 284.148C331.313 284.148 332.251 283.594 332.766 282.656H332.891V284H334.251V272.234H332.891V276.906H332.766C332.305 276.008 331.298 275.43 330.141 275.43C328.001 275.43 326.61 277.141 326.61 279.781V279.797C326.61 282.422 328.008 284.148 330.141 284.148ZM330.454 282.945C328.915 282.945 328.001 281.758 328.001 279.797V279.781C328.001 277.82 328.915 276.633 330.454 276.633C331.985 276.633 332.923 277.836 332.923 279.781V279.797C332.923 281.742 331.985 282.945 330.454 282.945ZM339.978 284.148C341.962 284.148 343.165 283.023 343.454 281.883L343.47 281.82H342.11L342.079 281.891C341.853 282.398 341.149 282.938 340.009 282.938C338.509 282.938 337.548 281.922 337.509 280.18H343.571V279.648C343.571 277.133 342.181 275.43 339.892 275.43C337.603 275.43 336.118 277.211 336.118 279.812V279.82C336.118 282.461 337.571 284.148 339.978 284.148ZM339.884 276.641C341.126 276.641 342.048 277.43 342.188 279.094H337.532C337.681 277.492 338.634 276.641 339.884 276.641ZM351.181 284H352.541L354.416 277.484H354.541L356.423 284H357.791L360.15 275.578H358.798L357.142 282.312H357.017L355.134 275.578H353.845L351.963 282.312H351.838L350.181 275.578H348.822L351.181 284ZM362.346 273.953C362.861 273.953 363.283 273.531 363.283 273.016C363.283 272.5 362.861 272.078 362.346 272.078C361.83 272.078 361.408 272.5 361.408 273.016C361.408 273.531 361.83 273.953 362.346 273.953ZM361.658 284H363.018V275.578H361.658V284ZM368.252 284.062C368.518 284.062 368.776 284.031 369.041 283.984V282.828C368.791 282.852 368.658 282.859 368.416 282.859C367.541 282.859 367.197 282.461 367.197 281.469V276.703H369.041V275.578H367.197V273.398H365.791V275.578H364.463V276.703H365.791V281.812C365.791 283.422 366.518 284.062 368.252 284.062ZM370.831 284H372.19V279.016C372.19 277.539 373.042 276.633 374.385 276.633C375.729 276.633 376.354 277.359 376.354 278.875V284H377.713V278.547C377.713 276.547 376.659 275.43 374.768 275.43C373.526 275.43 372.737 275.953 372.315 276.844H372.19V272.234H370.831V284ZM387.48 284H388.87L393.027 272.727H391.55L388.238 282.18H388.113L384.8 272.727H383.323L387.48 284ZM395.23 273.953C395.746 273.953 396.168 273.531 396.168 273.016C396.168 272.5 395.746 272.078 395.23 272.078C394.714 272.078 394.293 272.5 394.293 273.016C394.293 273.531 394.714 273.953 395.23 273.953ZM394.543 284H395.902V275.578H394.543V284ZM398.144 286.812H399.504V282.672H399.629C400.09 283.57 401.098 284.148 402.254 284.148C404.394 284.148 405.785 282.438 405.785 279.797V279.781C405.785 277.156 404.387 275.43 402.254 275.43C401.082 275.43 400.144 275.984 399.629 276.922H399.504V275.578H398.144V286.812ZM401.941 282.945C400.41 282.945 399.473 281.742 399.473 279.797V279.781C399.473 277.836 400.41 276.633 401.941 276.633C403.48 276.633 404.394 277.82 404.394 279.781V279.797C404.394 281.758 403.48 282.945 401.941 282.945ZM407.59 286.812H408.949V282.672H409.074C409.535 283.57 410.543 284.148 411.699 284.148C413.84 284.148 415.231 282.438 415.231 279.797V279.781C415.231 277.156 413.832 275.43 411.699 275.43C410.527 275.43 409.59 275.984 409.074 276.922H408.949V275.578H407.59V286.812ZM411.387 282.945C409.856 282.945 408.918 281.742 408.918 279.797V279.781C408.918 277.836 409.856 276.633 411.387 276.633C412.926 276.633 413.84 277.82 413.84 279.781V279.797C413.84 281.758 412.926 282.945 411.387 282.945ZM419.926 284.148C421.84 284.148 423.301 283.109 423.301 281.609V281.594C423.301 280.391 422.536 279.703 420.95 279.32L419.653 279.008C418.661 278.766 418.239 278.406 418.239 277.836V277.82C418.239 277.078 418.973 276.562 419.973 276.562C420.989 276.562 421.645 277.023 421.825 277.688H423.161C422.973 276.312 421.747 275.43 419.981 275.43C418.192 275.43 416.848 276.484 416.848 277.883V277.891C416.848 279.102 417.559 279.789 419.137 280.164L420.442 280.477C421.481 280.727 421.911 281.125 421.911 281.695V281.711C421.911 282.477 421.106 283.016 419.973 283.016C418.895 283.016 418.223 282.555 417.997 281.852H416.606C416.762 283.242 418.051 284.148 419.926 284.148ZM434.192 284.266C434.95 284.266 435.638 284.141 436.255 283.891L437.255 285.273H438.833L437.364 283.258C438.646 282.25 439.364 280.547 439.364 278.367V278.352C439.364 274.742 437.396 272.461 434.192 272.461C431.005 272.461 429.021 274.734 429.021 278.352V278.367C429.021 281.969 430.958 284.266 434.192 284.266ZM434.192 282.969C431.849 282.969 430.458 281.156 430.458 278.367V278.352C430.458 275.539 431.896 273.758 434.192 273.758C436.497 273.758 437.927 275.539 437.927 278.352V278.367C437.927 280.016 437.427 281.328 436.544 282.125L435.56 280.773H433.982L435.435 282.773C435.06 282.898 434.638 282.969 434.192 282.969ZM441.482 284H442.888V279.539H445.662L448.076 284H449.724L447.115 279.32C448.529 278.875 449.38 277.656 449.38 276.094V276.078C449.38 274.055 447.958 272.727 445.787 272.727H441.482V284ZM442.888 278.289V273.977H445.599C447.052 273.977 447.927 274.781 447.927 276.125V276.141C447.927 277.516 447.107 278.289 445.662 278.289H442.888ZM454.912 284H456.389L457.522 280.773H462.006L463.139 284H464.615L460.459 272.727H459.068L454.912 284ZM459.701 274.547H459.826L461.592 279.578H457.936L459.701 274.547ZM466.272 284H467.678V279.977H470.522C472.639 279.977 474.139 278.484 474.139 276.344V276.328C474.139 274.188 472.639 272.727 470.522 272.727H466.272V284ZM470.163 273.977C471.772 273.977 472.702 274.859 472.702 276.344V276.359C472.702 277.844 471.772 278.727 470.163 278.727H467.678V273.977H470.163ZM476.124 284H477.53V272.727H476.124V284Z" fill="black"/>
<path d="M580.367 263H581.773V252.992H585.406V251.727H576.734V252.992H580.367V263ZM587.164 263H588.524V258.016C588.524 256.539 589.375 255.633 590.719 255.633C592.063 255.633 592.688 256.359 592.688 257.875V263H594.047V257.547C594.047 255.547 592.993 254.43 591.102 254.43C589.86 254.43 589.071 254.953 588.649 255.844H588.524V251.234H587.164V263ZM599.626 263.148C601.61 263.148 602.813 262.023 603.102 260.883L603.118 260.82H601.758L601.727 260.891C601.501 261.398 600.798 261.938 599.657 261.938C598.157 261.938 597.196 260.922 597.157 259.18H603.219V258.648C603.219 256.133 601.829 254.43 599.54 254.43C597.251 254.43 595.766 256.211 595.766 258.812V258.82C595.766 261.461 597.219 263.148 599.626 263.148ZM599.532 255.641C600.774 255.641 601.696 256.43 601.837 258.094H597.18C597.329 256.492 598.282 255.641 599.532 255.641ZM612.025 263.148C613.259 263.148 614.111 262.641 614.525 261.742H614.65V263H616.009V254.578H614.65V259.562C614.65 261.039 613.861 261.945 612.376 261.945C611.032 261.945 610.486 261.219 610.486 259.703V254.578H609.126V260.031C609.126 262.023 610.111 263.148 612.025 263.148ZM621.119 263.148C623.033 263.148 624.494 262.109 624.494 260.609V260.594C624.494 259.391 623.728 258.703 622.142 258.32L620.845 258.008C619.853 257.766 619.431 257.406 619.431 256.836V256.82C619.431 256.078 620.166 255.562 621.166 255.562C622.181 255.562 622.838 256.023 623.017 256.688H624.353C624.166 255.312 622.939 254.43 621.173 254.43C619.384 254.43 618.041 255.484 618.041 256.883V256.891C618.041 258.102 618.752 258.789 620.33 259.164L621.634 259.477C622.673 259.727 623.103 260.125 623.103 260.695V260.711C623.103 261.477 622.298 262.016 621.166 262.016C620.088 262.016 619.416 261.555 619.189 260.852H617.798C617.955 262.242 619.244 263.148 621.119 263.148ZM629.721 263.148C631.705 263.148 632.908 262.023 633.197 260.883L633.213 260.82H631.853L631.822 260.891C631.596 261.398 630.893 261.938 629.752 261.938C628.252 261.938 627.291 260.922 627.252 259.18H633.314V258.648C633.314 256.133 631.924 254.43 629.635 254.43C627.346 254.43 625.861 256.211 625.861 258.812V258.82C625.861 261.461 627.314 263.148 629.721 263.148ZM629.627 255.641C630.869 255.641 631.791 256.43 631.932 258.094H627.275C627.424 256.492 628.377 255.641 629.627 255.641ZM635.104 263H636.463V257.781C636.463 256.547 637.385 255.727 638.682 255.727C638.979 255.727 639.237 255.758 639.518 255.805V254.484C639.385 254.461 639.096 254.43 638.838 254.43C637.697 254.43 636.908 254.945 636.588 255.828H636.463V254.578H635.104V263ZM647.964 263.148C649.878 263.148 651.339 262.109 651.339 260.609V260.594C651.339 259.391 650.573 258.703 648.987 258.32L647.69 258.008C646.698 257.766 646.276 257.406 646.276 256.836V256.82C646.276 256.078 647.011 255.562 648.011 255.562C649.026 255.562 649.683 256.023 649.862 256.688H651.198C651.011 255.312 649.784 254.43 648.018 254.43C646.229 254.43 644.886 255.484 644.886 256.883V256.891C644.886 258.102 645.597 258.789 647.175 259.164L648.479 259.477C649.518 259.727 649.948 260.125 649.948 260.695V260.711C649.948 261.477 649.143 262.016 648.011 262.016C646.933 262.016 646.261 261.555 646.034 260.852H644.643C644.8 262.242 646.089 263.148 647.964 263.148ZM656.573 263.148C658.597 263.148 659.73 262.062 660.073 260.539L660.089 260.453L658.745 260.461L658.73 260.508C658.417 261.445 657.698 261.945 656.566 261.945C655.066 261.945 654.097 260.703 654.097 258.766V258.75C654.097 256.852 655.05 255.633 656.566 255.633C657.777 255.633 658.527 256.305 658.738 257.133L658.745 257.156H660.097L660.089 257.109C659.839 255.609 658.613 254.43 656.566 254.43C654.206 254.43 652.706 256.133 652.706 258.75V258.766C652.706 261.438 654.214 263.148 656.573 263.148ZM664.074 263.148C665.207 263.148 666.089 262.656 666.621 261.758H666.746V263H668.105V257.234C668.105 255.484 666.957 254.43 664.902 254.43C663.105 254.43 661.824 255.32 661.605 256.641L661.597 256.688H662.957L662.964 256.664C663.183 256.008 663.847 255.633 664.855 255.633C666.113 255.633 666.746 256.195 666.746 257.234V258L664.332 258.148C662.371 258.266 661.261 259.133 661.261 260.633V260.648C661.261 262.18 662.472 263.148 664.074 263.148ZM662.652 260.617V260.602C662.652 259.766 663.214 259.312 664.496 259.234L666.746 259.094V259.859C666.746 261.062 665.738 261.969 664.355 261.969C663.378 261.969 662.652 261.469 662.652 260.617ZM670.269 263H671.629V258.016C671.629 256.539 672.48 255.633 673.824 255.633C675.168 255.633 675.793 256.359 675.793 257.875V263H677.152V257.547C677.152 255.547 676.098 254.43 674.207 254.43C672.965 254.43 672.176 254.953 671.754 255.844H671.629V254.578H670.269V263ZM682.184 263.148C684.098 263.148 685.559 262.109 685.559 260.609V260.594C685.559 259.391 684.793 258.703 683.207 258.32L681.91 258.008C680.918 257.766 680.496 257.406 680.496 256.836V256.82C680.496 256.078 681.231 255.562 682.231 255.562C683.246 255.562 683.902 256.023 684.082 256.688H685.418C685.231 255.312 684.004 254.43 682.238 254.43C680.449 254.43 679.106 255.484 679.106 256.883V256.891C679.106 258.102 679.817 258.789 681.395 259.164L682.699 259.477C683.738 259.727 684.168 260.125 684.168 260.695V260.711C684.168 261.477 683.363 262.016 682.231 262.016C681.152 262.016 680.481 261.555 680.254 260.852H678.863C679.02 262.242 680.309 263.148 682.184 263.148ZM580.258 284.062C580.523 284.062 580.781 284.031 581.047 283.984V282.828C580.797 282.852 580.664 282.859 580.422 282.859C579.547 282.859 579.203 282.461 579.203 281.469V276.703H581.047V275.578H579.203V273.398H577.797V275.578H576.469V276.703H577.797V281.812C577.797 283.422 578.523 284.062 580.258 284.062ZM582.836 284H584.196V279.016C584.196 277.539 585.047 276.633 586.391 276.633C587.735 276.633 588.36 277.359 588.36 278.875V284H589.719V278.547C589.719 276.547 588.664 275.43 586.774 275.43C585.532 275.43 584.742 275.953 584.321 276.844H584.196V272.234H582.836V284ZM595.297 284.148C597.282 284.148 598.485 283.023 598.774 281.883L598.79 281.82H597.43L597.399 281.891C597.172 282.398 596.469 282.938 595.329 282.938C593.829 282.938 592.868 281.922 592.829 280.18H598.891V279.648C598.891 277.133 597.501 275.43 595.212 275.43C592.922 275.43 591.438 277.211 591.438 279.812V279.82C591.438 282.461 592.891 284.148 595.297 284.148ZM595.204 276.641C596.446 276.641 597.368 277.43 597.508 279.094H592.852C593.001 277.492 593.954 276.641 595.204 276.641ZM609.782 284.266C610.54 284.266 611.228 284.141 611.845 283.891L612.845 285.273H614.423L612.954 283.258C614.236 282.25 614.954 280.547 614.954 278.367V278.352C614.954 274.742 612.986 272.461 609.782 272.461C606.595 272.461 604.611 274.734 604.611 278.352V278.367C604.611 281.969 606.548 284.266 609.782 284.266ZM609.782 282.969C607.439 282.969 606.048 281.156 606.048 278.367V278.352C606.048 275.539 607.486 273.758 609.782 273.758C612.087 273.758 613.517 275.539 613.517 278.352V278.367C613.517 280.016 613.017 281.328 612.134 282.125L611.15 280.773H609.572L611.025 282.773C610.65 282.898 610.228 282.969 609.782 282.969ZM617.072 284H618.478V279.539H621.252L623.666 284H625.314L622.705 279.32C624.119 278.875 624.97 277.656 624.97 276.094V276.078C624.97 274.055 623.548 272.727 621.377 272.727H617.072V284ZM618.478 278.289V273.977H621.189C622.642 273.977 623.517 274.781 623.517 276.125V276.141C623.517 277.516 622.697 278.289 621.252 278.289H618.478ZM634.674 284.148C636.697 284.148 637.83 283.062 638.174 281.539L638.19 281.453L636.846 281.461L636.83 281.508C636.518 282.445 635.799 282.945 634.666 282.945C633.166 282.945 632.197 281.703 632.197 279.766V279.75C632.197 277.852 633.151 276.633 634.666 276.633C635.877 276.633 636.627 277.305 636.838 278.133L636.846 278.156H638.197L638.19 278.109C637.94 276.609 636.713 275.43 634.666 275.43C632.307 275.43 630.807 277.133 630.807 279.75V279.766C630.807 282.438 632.315 284.148 634.674 284.148ZM643.323 284.148C645.721 284.148 647.206 282.492 647.206 279.797V279.781C647.206 277.078 645.721 275.43 643.323 275.43C640.924 275.43 639.44 277.078 639.44 279.781V279.797C639.44 282.492 640.924 284.148 643.323 284.148ZM643.323 282.945C641.729 282.945 640.831 281.781 640.831 279.797V279.781C640.831 277.789 641.729 276.633 643.323 276.633C644.917 276.633 645.815 277.789 645.815 279.781V279.797C645.815 281.781 644.917 282.945 643.323 282.945ZM652.104 284.148C653.276 284.148 654.214 283.594 654.729 282.656H654.854V284H656.214V272.234H654.854V276.906H654.729C654.268 276.008 653.261 275.43 652.104 275.43C649.964 275.43 648.573 277.141 648.573 279.781V279.797C648.573 282.422 649.972 284.148 652.104 284.148ZM652.417 282.945C650.878 282.945 649.964 281.758 649.964 279.797V279.781C649.964 277.82 650.878 276.633 652.417 276.633C653.948 276.633 654.886 277.836 654.886 279.781V279.797C654.886 281.742 653.948 282.945 652.417 282.945ZM661.941 284.148C663.925 284.148 665.128 283.023 665.417 281.883L665.433 281.82H664.073L664.042 281.891C663.816 282.398 663.113 282.938 661.972 282.938C660.472 282.938 659.511 281.922 659.472 280.18H665.534V279.648C665.534 277.133 664.144 275.43 661.855 275.43C659.566 275.43 658.081 277.211 658.081 279.812V279.82C658.081 282.461 659.534 284.148 661.941 284.148ZM661.847 276.641C663.089 276.641 664.011 277.43 664.152 279.094H659.495C659.644 277.492 660.597 276.641 661.847 276.641Z" fill="black"/>
<path d="M805.367 263H806.773V252.992H810.406V251.727H801.734V252.992H805.367V263ZM812.164 263H813.524V258.016C813.524 256.539 814.375 255.633 815.719 255.633C817.063 255.633 817.688 256.359 817.688 257.875V263H819.047V257.547C819.047 255.547 817.993 254.43 816.102 254.43C814.86 254.43 814.071 254.953 813.649 255.844H813.524V251.234H812.164V263ZM824.626 263.148C826.61 263.148 827.813 262.023 828.102 260.883L828.118 260.82H826.758L826.727 260.891C826.501 261.398 825.798 261.938 824.657 261.938C823.157 261.938 822.196 260.922 822.157 259.18H828.219V258.648C828.219 256.133 826.829 254.43 824.54 254.43C822.251 254.43 820.766 256.211 820.766 258.812V258.82C820.766 261.461 822.219 263.148 824.626 263.148ZM824.532 255.641C825.774 255.641 826.696 256.43 826.837 258.094H822.18C822.329 256.492 823.282 255.641 824.532 255.641ZM837.025 263.148C838.259 263.148 839.111 262.641 839.525 261.742H839.65V263H841.009V254.578H839.65V259.562C839.65 261.039 838.861 261.945 837.376 261.945C836.032 261.945 835.486 261.219 835.486 259.703V254.578H834.126V260.031C834.126 262.023 835.111 263.148 837.025 263.148ZM846.119 263.148C848.033 263.148 849.494 262.109 849.494 260.609V260.594C849.494 259.391 848.728 258.703 847.142 258.32L845.845 258.008C844.853 257.766 844.431 257.406 844.431 256.836V256.82C844.431 256.078 845.166 255.562 846.166 255.562C847.181 255.562 847.838 256.023 848.017 256.688H849.353C849.166 255.312 847.939 254.43 846.173 254.43C844.384 254.43 843.041 255.484 843.041 256.883V256.891C843.041 258.102 843.752 258.789 845.33 259.164L846.634 259.477C847.673 259.727 848.103 260.125 848.103 260.695V260.711C848.103 261.477 847.298 262.016 846.166 262.016C845.088 262.016 844.416 261.555 844.189 260.852H842.798C842.955 262.242 844.244 263.148 846.119 263.148ZM854.721 263.148C856.705 263.148 857.908 262.023 858.197 260.883L858.213 260.82H856.853L856.822 260.891C856.596 261.398 855.893 261.938 854.752 261.938C853.252 261.938 852.291 260.922 852.252 259.18H858.314V258.648C858.314 256.133 856.924 254.43 854.635 254.43C852.346 254.43 850.861 256.211 850.861 258.812V258.82C850.861 261.461 852.314 263.148 854.721 263.148ZM854.627 255.641C855.869 255.641 856.791 256.43 856.932 258.094H852.275C852.424 256.492 853.377 255.641 854.627 255.641ZM860.104 263H861.463V257.781C861.463 256.547 862.385 255.727 863.682 255.727C863.979 255.727 864.237 255.758 864.518 255.805V254.484C864.385 254.461 864.096 254.43 863.838 254.43C862.697 254.43 861.908 254.945 861.588 255.828H861.463V254.578H860.104V263ZM873.518 263.148C875.542 263.148 876.675 262.062 877.018 260.539L877.034 260.453L875.69 260.461L875.675 260.508C875.362 261.445 874.643 261.945 873.511 261.945C872.011 261.945 871.042 260.703 871.042 258.766V258.75C871.042 256.852 871.995 255.633 873.511 255.633C874.722 255.633 875.472 256.305 875.683 257.133L875.69 257.156H877.042L877.034 257.109C876.784 255.609 875.558 254.43 873.511 254.43C871.151 254.43 869.651 256.133 869.651 258.75V258.766C869.651 261.438 871.159 263.148 873.518 263.148ZM882.167 263.148C884.566 263.148 886.05 261.492 886.05 258.797V258.781C886.05 256.078 884.566 254.43 882.167 254.43C879.769 254.43 878.284 256.078 878.284 258.781V258.797C878.284 261.492 879.769 263.148 882.167 263.148ZM882.167 261.945C880.573 261.945 879.675 260.781 879.675 258.797V258.781C879.675 256.789 880.573 255.633 882.167 255.633C883.761 255.633 884.659 256.789 884.659 258.781V258.797C884.659 260.781 883.761 261.945 882.167 261.945ZM887.839 263H889.199V257.781C889.199 256.594 890.035 255.633 891.136 255.633C892.199 255.633 892.886 256.281 892.886 257.281V263H894.246V257.586C894.246 256.516 895.019 255.633 896.191 255.633C897.378 255.633 897.949 256.25 897.949 257.492V263H899.308V257.18C899.308 255.414 898.347 254.43 896.628 254.43C895.464 254.43 894.503 255.016 894.05 255.906H893.925C893.535 255.031 892.738 254.43 891.597 254.43C890.496 254.43 889.699 254.953 889.324 255.859H889.199V254.578H887.839V263ZM901.441 265.812H902.801V261.672H902.926C903.387 262.57 904.394 263.148 905.551 263.148C907.691 263.148 909.082 261.438 909.082 258.797V258.781C909.082 256.156 907.683 254.43 905.551 254.43C904.379 254.43 903.441 254.984 902.926 255.922H902.801V254.578H901.441V265.812ZM905.238 261.945C903.707 261.945 902.769 260.742 902.769 258.797V258.781C902.769 256.836 903.707 255.633 905.238 255.633C906.777 255.633 907.691 256.82 907.691 258.781V258.797C907.691 260.758 906.777 261.945 905.238 261.945ZM910.965 263H912.324V251.234H910.965V263ZM918.051 263.148C920.036 263.148 921.239 262.023 921.528 260.883L921.543 260.82H920.184L920.153 260.891C919.926 261.398 919.223 261.938 918.082 261.938C916.582 261.938 915.622 260.922 915.582 259.18H921.645V258.648C921.645 256.133 920.254 254.43 917.965 254.43C915.676 254.43 914.192 256.211 914.192 258.812V258.82C914.192 261.461 915.645 263.148 918.051 263.148ZM917.957 255.641C919.2 255.641 920.122 256.43 920.262 258.094H915.606C915.754 256.492 916.707 255.641 917.957 255.641ZM926.427 263.062C926.692 263.062 926.95 263.031 927.216 262.984V261.828C926.966 261.852 926.833 261.859 926.591 261.859C925.716 261.859 925.372 261.461 925.372 260.469V255.703H927.216V254.578H925.372V252.398H923.966V254.578H922.637V255.703H923.966V260.812C923.966 262.422 924.692 263.062 926.427 263.062ZM932.239 263.148C934.224 263.148 935.427 262.023 935.716 260.883L935.732 260.82H934.372L934.341 260.891C934.114 261.398 933.411 261.938 932.271 261.938C930.771 261.938 929.81 260.922 929.771 259.18H935.833V258.648C935.833 256.133 934.442 254.43 932.153 254.43C929.864 254.43 928.38 256.211 928.38 258.812V258.82C928.38 261.461 929.833 263.148 932.239 263.148ZM932.146 255.641C933.388 255.641 934.31 256.43 934.45 258.094H929.794C929.942 256.492 930.896 255.641 932.146 255.641ZM940.513 263.148C942.427 263.148 943.888 262.109 943.888 260.609V260.594C943.888 259.391 943.122 258.703 941.537 258.32L940.24 258.008C939.247 257.766 938.826 257.406 938.826 256.836V256.82C938.826 256.078 939.56 255.562 940.56 255.562C941.576 255.562 942.232 256.023 942.412 256.688H943.747C943.56 255.312 942.333 254.43 940.568 254.43C938.779 254.43 937.435 255.484 937.435 256.883V256.891C937.435 258.102 938.146 258.789 939.724 259.164L941.029 259.477C942.068 259.727 942.497 260.125 942.497 260.695V260.711C942.497 261.477 941.693 262.016 940.56 262.016C939.482 262.016 938.81 261.555 938.583 260.852H937.193C937.349 262.242 938.638 263.148 940.513 263.148ZM805.258 284.062C805.523 284.062 805.781 284.031 806.047 283.984V282.828C805.797 282.852 805.664 282.859 805.422 282.859C804.547 282.859 804.203 282.461 804.203 281.469V276.703H806.047V275.578H804.203V273.398H802.797V275.578H801.469V276.703H802.797V281.812C802.797 283.422 803.523 284.062 805.258 284.062ZM807.836 284H809.196V279.016C809.196 277.539 810.047 276.633 811.391 276.633C812.735 276.633 813.36 277.359 813.36 278.875V284H814.719V278.547C814.719 276.547 813.664 275.43 811.774 275.43C810.532 275.43 809.742 275.953 809.321 276.844H809.196V272.234H807.836V284ZM820.297 284.148C822.282 284.148 823.485 283.023 823.774 281.883L823.79 281.82H822.43L822.399 281.891C822.172 282.398 821.469 282.938 820.329 282.938C818.829 282.938 817.868 281.922 817.829 280.18H823.891V279.648C823.891 277.133 822.501 275.43 820.212 275.43C817.922 275.43 816.438 277.211 816.438 279.812V279.82C816.438 282.461 817.891 284.148 820.297 284.148ZM820.204 276.641C821.446 276.641 822.368 277.43 822.508 279.094H817.852C818.001 277.492 818.954 276.641 820.204 276.641ZM833.306 284H834.697L838.853 272.727H837.376L834.064 282.18H833.939L830.626 272.727H829.15L833.306 284ZM841.056 273.953C841.572 273.953 841.994 273.531 841.994 273.016C841.994 272.5 841.572 272.078 841.056 272.078C840.541 272.078 840.119 272.5 840.119 273.016C840.119 273.531 840.541 273.953 841.056 273.953ZM840.369 284H841.728V275.578H840.369V284ZM843.971 286.812H845.33V282.672H845.455C845.916 283.57 846.924 284.148 848.08 284.148C850.221 284.148 851.611 282.438 851.611 279.797V279.781C851.611 277.156 850.213 275.43 848.08 275.43C846.908 275.43 845.971 275.984 845.455 276.922H845.33V275.578H843.971V286.812ZM847.768 282.945C846.236 282.945 845.299 281.742 845.299 279.797V279.781C845.299 277.836 846.236 276.633 847.768 276.633C849.307 276.633 850.221 277.82 850.221 279.781V279.797C850.221 281.758 849.307 282.945 847.768 282.945ZM853.416 286.812H854.776V282.672H854.901C855.362 283.57 856.369 284.148 857.526 284.148C859.666 284.148 861.057 282.438 861.057 279.797V279.781C861.057 277.156 859.658 275.43 857.526 275.43C856.354 275.43 855.416 275.984 854.901 276.922H854.776V275.578H853.416V286.812ZM857.213 282.945C855.682 282.945 854.744 281.742 854.744 279.797V279.781C854.744 277.836 855.682 276.633 857.213 276.633C858.752 276.633 859.666 277.82 859.666 279.781V279.797C859.666 281.758 858.752 282.945 857.213 282.945ZM865.752 284.148C867.667 284.148 869.127 283.109 869.127 281.609V281.594C869.127 280.391 868.362 279.703 866.776 279.32L865.479 279.008C864.487 278.766 864.065 278.406 864.065 277.836V277.82C864.065 277.078 864.799 276.562 865.799 276.562C866.815 276.562 867.471 277.023 867.651 277.688H868.987C868.799 276.312 867.573 275.43 865.807 275.43C864.018 275.43 862.674 276.484 862.674 277.883V277.891C862.674 279.102 863.385 279.789 864.963 280.164L866.268 280.477C867.307 280.727 867.737 281.125 867.737 281.695V281.711C867.737 282.477 866.932 283.016 865.799 283.016C864.721 283.016 864.049 282.555 863.823 281.852H862.432C862.588 283.242 863.877 284.148 865.752 284.148ZM875.113 286.812H876.472V282.672H876.597C877.058 283.57 878.066 284.148 879.222 284.148C881.363 284.148 882.753 282.438 882.753 279.797V279.781C882.753 277.156 881.355 275.43 879.222 275.43C878.05 275.43 877.113 275.984 876.597 276.922H876.472V275.578H875.113V286.812ZM878.909 282.945C877.378 282.945 876.441 281.742 876.441 279.797V279.781C876.441 277.836 877.378 276.633 878.909 276.633C880.448 276.633 881.363 277.82 881.363 279.781V279.797C881.363 281.758 880.448 282.945 878.909 282.945ZM886.871 284.148C888.003 284.148 888.886 283.656 889.418 282.758H889.543V284H890.902V278.234C890.902 276.484 889.753 275.43 887.699 275.43C885.902 275.43 884.621 276.32 884.402 277.641L884.394 277.688H885.753L885.761 277.664C885.98 277.008 886.644 276.633 887.652 276.633C888.91 276.633 889.543 277.195 889.543 278.234V279L887.128 279.148C885.168 279.266 884.058 280.133 884.058 281.633V281.648C884.058 283.18 885.269 284.148 886.871 284.148ZM885.449 281.617V281.602C885.449 280.766 886.011 280.312 887.293 280.234L889.543 280.094V280.859C889.543 282.062 888.535 282.969 887.152 282.969C886.175 282.969 885.449 282.469 885.449 281.617ZM893.473 286.953C894.965 286.953 895.66 286.406 896.355 284.516L899.644 275.578H898.215L895.91 282.508H895.785L893.473 275.578H892.019L895.137 284.008L894.98 284.508C894.676 285.477 894.207 285.828 893.433 285.828C893.246 285.828 893.035 285.82 892.871 285.789V286.906C893.058 286.938 893.293 286.953 893.473 286.953ZM901.121 284H902.481V278.781C902.481 277.594 903.317 276.633 904.418 276.633C905.481 276.633 906.168 277.281 906.168 278.281V284H907.527V278.586C907.527 277.516 908.301 276.633 909.473 276.633C910.66 276.633 911.231 277.25 911.231 278.492V284H912.59V278.18C912.59 276.414 911.629 275.43 909.91 275.43C908.746 275.43 907.785 276.016 907.332 276.906H907.207C906.817 276.031 906.02 275.43 904.879 275.43C903.777 275.43 902.981 275.953 902.606 276.859H902.481V275.578H901.121V284ZM918.161 284.148C920.145 284.148 921.348 283.023 921.637 281.883L921.653 281.82H920.293L920.262 281.891C920.036 282.398 919.332 282.938 918.192 282.938C916.692 282.938 915.731 281.922 915.692 280.18H921.754V279.648C921.754 277.133 920.364 275.43 918.075 275.43C915.786 275.43 914.301 277.211 914.301 279.812V279.82C914.301 282.461 915.754 284.148 918.161 284.148ZM918.067 276.641C919.309 276.641 920.231 277.43 920.372 279.094H915.715C915.864 277.492 916.817 276.641 918.067 276.641ZM923.544 284H924.903V279.016C924.903 277.539 925.755 276.633 927.098 276.633C928.442 276.633 929.067 277.359 929.067 278.875V284H930.427V278.547C930.427 276.547 929.372 275.43 927.481 275.43C926.239 275.43 925.45 275.953 925.028 276.844H924.903V275.578H923.544V284ZM935.56 284.062C935.825 284.062 936.083 284.031 936.349 283.984V282.828C936.099 282.852 935.966 282.859 935.724 282.859C934.849 282.859 934.505 282.461 934.505 281.469V276.703H936.349V275.578H934.505V273.398H933.099V275.578H931.771V276.703H933.099V281.812C933.099 283.422 933.825 284.062 935.56 284.062Z" fill="black"/>
<path d="M1035.37 263H1036.77V252.992H1040.41V251.727H1031.73V252.992H1035.37V263ZM1042.16 263H1043.52V258.016C1043.52 256.539 1044.38 255.633 1045.72 255.633C1047.06 255.633 1047.69 256.359 1047.69 257.875V263H1049.05V257.547C1049.05 255.547 1047.99 254.43 1046.1 254.43C1044.86 254.43 1044.07 254.953 1043.65 255.844H1043.52V251.234H1042.16V263ZM1054.63 263.148C1056.61 263.148 1057.81 262.023 1058.1 260.883L1058.12 260.82H1056.76L1056.73 260.891C1056.5 261.398 1055.8 261.938 1054.66 261.938C1053.16 261.938 1052.2 260.922 1052.16 259.18H1058.22V258.648C1058.22 256.133 1056.83 254.43 1054.54 254.43C1052.25 254.43 1050.77 256.211 1050.77 258.812V258.82C1050.77 261.461 1052.22 263.148 1054.63 263.148ZM1054.53 255.641C1055.77 255.641 1056.7 256.43 1056.84 258.094H1052.18C1052.33 256.492 1053.28 255.641 1054.53 255.641ZM1067.02 263.148C1068.26 263.148 1069.11 262.641 1069.52 261.742H1069.65V263H1071.01V254.578H1069.65V259.562C1069.65 261.039 1068.86 261.945 1067.38 261.945C1066.03 261.945 1065.49 261.219 1065.49 259.703V254.578H1064.13V260.031C1064.13 262.023 1065.11 263.148 1067.02 263.148ZM1076.12 263.148C1078.03 263.148 1079.49 262.109 1079.49 260.609V260.594C1079.49 259.391 1078.73 258.703 1077.14 258.32L1075.85 258.008C1074.85 257.766 1074.43 257.406 1074.43 256.836V256.82C1074.43 256.078 1075.17 255.562 1076.17 255.562C1077.18 255.562 1077.84 256.023 1078.02 256.688H1079.35C1079.17 255.312 1077.94 254.43 1076.17 254.43C1074.38 254.43 1073.04 255.484 1073.04 256.883V256.891C1073.04 258.102 1073.75 258.789 1075.33 259.164L1076.63 259.477C1077.67 259.727 1078.1 260.125 1078.1 260.695V260.711C1078.1 261.477 1077.3 262.016 1076.17 262.016C1075.09 262.016 1074.42 261.555 1074.19 260.852H1072.8C1072.95 262.242 1074.24 263.148 1076.12 263.148ZM1084.72 263.148C1086.71 263.148 1087.91 262.023 1088.2 260.883L1088.21 260.82H1086.85L1086.82 260.891C1086.6 261.398 1085.89 261.938 1084.75 261.938C1083.25 261.938 1082.29 260.922 1082.25 259.18H1088.31V258.648C1088.31 256.133 1086.92 254.43 1084.63 254.43C1082.35 254.43 1080.86 256.211 1080.86 258.812V258.82C1080.86 261.461 1082.31 263.148 1084.72 263.148ZM1084.63 255.641C1085.87 255.641 1086.79 256.43 1086.93 258.094H1082.28C1082.42 256.492 1083.38 255.641 1084.63 255.641ZM1090.1 263H1091.46V257.781C1091.46 256.547 1092.38 255.727 1093.68 255.727C1093.98 255.727 1094.24 255.758 1094.52 255.805V254.484C1094.38 254.461 1094.1 254.43 1093.84 254.43C1092.7 254.43 1091.91 254.945 1091.59 255.828H1091.46V254.578H1090.1V263ZM1102.96 263.148C1104.88 263.148 1106.34 262.109 1106.34 260.609V260.594C1106.34 259.391 1105.57 258.703 1103.99 258.32L1102.69 258.008C1101.7 257.766 1101.28 257.406 1101.28 256.836V256.82C1101.28 256.078 1102.01 255.562 1103.01 255.562C1104.03 255.562 1104.68 256.023 1104.86 256.688H1106.2C1106.01 255.312 1104.78 254.43 1103.02 254.43C1101.23 254.43 1099.89 255.484 1099.89 256.883V256.891C1099.89 258.102 1100.6 258.789 1102.17 259.164L1103.48 259.477C1104.52 259.727 1104.95 260.125 1104.95 260.695V260.711C1104.95 261.477 1104.14 262.016 1103.01 262.016C1101.93 262.016 1101.26 261.555 1101.03 260.852H1099.64C1099.8 262.242 1101.09 263.148 1102.96 263.148ZM1111.57 263.148C1113.55 263.148 1114.75 262.023 1115.04 260.883L1115.06 260.82H1113.7L1113.67 260.891C1113.44 261.398 1112.74 261.938 1111.6 261.938C1110.1 261.938 1109.14 260.922 1109.1 259.18H1115.16V258.648C1115.16 256.133 1113.77 254.43 1111.48 254.43C1109.19 254.43 1107.71 256.211 1107.71 258.812V258.82C1107.71 261.461 1109.16 263.148 1111.57 263.148ZM1111.47 255.641C1112.71 255.641 1113.64 256.43 1113.78 258.094H1109.12C1109.27 256.492 1110.22 255.641 1111.47 255.641ZM1120.39 263.148C1122.37 263.148 1123.57 262.023 1123.86 260.883L1123.88 260.82H1122.52L1122.49 260.891C1122.26 261.398 1121.56 261.938 1120.42 261.938C1118.92 261.938 1117.96 260.922 1117.92 259.18H1123.98V258.648C1123.98 256.133 1122.59 254.43 1120.3 254.43C1118.01 254.43 1116.53 256.211 1116.53 258.812V258.82C1116.53 261.461 1117.98 263.148 1120.39 263.148ZM1120.29 255.641C1121.53 255.641 1122.46 256.43 1122.6 258.094H1117.94C1118.09 256.492 1119.04 255.641 1120.29 255.641ZM1128.66 263.148C1130.57 263.148 1132.04 262.109 1132.04 260.609V260.594C1132.04 259.391 1131.27 258.703 1129.68 258.32L1128.39 258.008C1127.39 257.766 1126.97 257.406 1126.97 256.836V256.82C1126.97 256.078 1127.71 255.562 1128.71 255.562C1129.72 255.562 1130.38 256.023 1130.56 256.688H1131.89C1131.71 255.312 1130.48 254.43 1128.71 254.43C1126.93 254.43 1125.58 255.484 1125.58 256.883V256.891C1125.58 258.102 1126.29 258.789 1127.87 259.164L1129.18 259.477C1130.21 259.727 1130.64 260.125 1130.64 260.695V260.711C1130.64 261.477 1129.84 262.016 1128.71 262.016C1127.63 262.016 1126.96 261.555 1126.73 260.852H1125.34C1125.5 262.242 1126.79 263.148 1128.66 263.148ZM1141.01 263.062C1141.28 263.062 1141.54 263.031 1141.8 262.984V261.828C1141.55 261.852 1141.42 261.859 1141.18 261.859C1140.3 261.859 1139.96 261.461 1139.96 260.469V255.703H1141.8V254.578H1139.96V252.398H1138.55V254.578H1137.22V255.703H1138.55V260.812C1138.55 262.422 1139.28 263.062 1141.01 263.062ZM1143.59 263H1144.95V258.016C1144.95 256.539 1145.8 255.633 1147.15 255.633C1148.49 255.633 1149.11 256.359 1149.11 257.875V263H1150.47V257.547C1150.47 255.547 1149.42 254.43 1147.53 254.43C1146.29 254.43 1145.5 254.953 1145.07 255.844H1144.95V251.234H1143.59V263ZM1156.05 263.148C1158.04 263.148 1159.24 262.023 1159.53 260.883L1159.54 260.82H1158.18L1158.15 260.891C1157.93 261.398 1157.22 261.938 1156.08 261.938C1154.58 261.938 1153.62 260.922 1153.58 259.18H1159.65V258.648C1159.65 256.133 1158.25 254.43 1155.97 254.43C1153.68 254.43 1152.19 256.211 1152.19 258.812V258.82C1152.19 261.461 1153.65 263.148 1156.05 263.148ZM1155.96 255.641C1157.2 255.641 1158.12 256.43 1158.26 258.094H1153.61C1153.75 256.492 1154.71 255.641 1155.96 255.641ZM1166.18 256.172H1167.3L1167.47 251.727H1166.01L1166.18 256.172ZM1169.07 256.172H1170.19L1170.36 251.727H1168.9L1169.07 256.172ZM1177.86 263.266C1181.08 263.266 1183.03 260.961 1183.03 257.367V257.352C1183.03 253.742 1181.06 251.461 1177.86 251.461C1174.67 251.461 1172.69 253.734 1172.69 257.352V257.367C1172.69 260.969 1174.62 263.266 1177.86 263.266ZM1177.86 261.969C1175.51 261.969 1174.12 260.156 1174.12 257.367V257.352C1174.12 254.539 1175.56 252.758 1177.86 252.758C1180.16 252.758 1181.59 254.539 1181.59 257.352V257.367C1181.59 260.156 1180.17 261.969 1177.86 261.969ZM1184.98 263H1186.33V257.781C1186.33 256.547 1187.26 255.727 1188.55 255.727C1188.85 255.727 1189.11 255.758 1189.39 255.805V254.484C1189.26 254.461 1188.97 254.43 1188.71 254.43C1187.57 254.43 1186.78 254.945 1186.46 255.828H1186.33V254.578H1184.98V263ZM1193.62 263.148C1194.8 263.148 1195.73 262.594 1196.25 261.656H1196.37V263H1197.73V251.234H1196.37V255.906H1196.25C1195.79 255.008 1194.78 254.43 1193.62 254.43C1191.48 254.43 1190.09 256.141 1190.09 258.781V258.797C1190.09 261.422 1191.49 263.148 1193.62 263.148ZM1193.94 261.945C1192.4 261.945 1191.48 260.758 1191.48 258.797V258.781C1191.48 256.82 1192.4 255.633 1193.94 255.633C1195.47 255.633 1196.4 256.836 1196.4 258.781V258.797C1196.4 260.742 1195.47 261.945 1193.94 261.945ZM1203.46 263.148C1205.44 263.148 1206.65 262.023 1206.94 260.883L1206.95 260.82H1205.59L1205.56 260.891C1205.34 261.398 1204.63 261.938 1203.49 261.938C1201.99 261.938 1201.03 260.922 1200.99 259.18H1207.05V258.648C1207.05 256.133 1205.66 254.43 1203.37 254.43C1201.09 254.43 1199.6 256.211 1199.6 258.812V258.82C1199.6 261.461 1201.05 263.148 1203.46 263.148ZM1203.37 255.641C1204.61 255.641 1205.53 256.43 1205.67 258.094H1201.01C1201.16 256.492 1202.12 255.641 1203.37 255.641ZM1208.84 263H1210.2V257.781C1210.2 256.547 1211.12 255.727 1212.42 255.727C1212.72 255.727 1212.98 255.758 1213.26 255.805V254.484C1213.12 254.461 1212.84 254.43 1212.58 254.43C1211.44 254.43 1210.65 254.945 1210.33 255.828H1210.2V254.578H1208.84V263ZM1035.71 284.148C1037.73 284.148 1038.87 283.062 1039.21 281.539L1039.23 281.453L1037.88 281.461L1037.87 281.508C1037.55 282.445 1036.84 282.945 1035.7 282.945C1034.2 282.945 1033.23 281.703 1033.23 279.766V279.75C1033.23 277.852 1034.19 276.633 1035.7 276.633C1036.91 276.633 1037.66 277.305 1037.88 278.133L1037.88 278.156H1039.23L1039.23 278.109C1038.98 276.609 1037.75 275.43 1035.7 275.43C1033.34 275.43 1031.84 277.133 1031.84 279.75V279.766C1031.84 282.438 1033.35 284.148 1035.71 284.148ZM1044.36 284.148C1046.76 284.148 1048.24 282.492 1048.24 279.797V279.781C1048.24 277.078 1046.76 275.43 1044.36 275.43C1041.96 275.43 1040.48 277.078 1040.48 279.781V279.797C1040.48 282.492 1041.96 284.148 1044.36 284.148ZM1044.36 282.945C1042.77 282.945 1041.87 281.781 1041.87 279.797V279.781C1041.87 277.789 1042.77 276.633 1044.36 276.633C1045.95 276.633 1046.85 277.789 1046.85 279.781V279.797C1046.85 281.781 1045.95 282.945 1044.36 282.945ZM1050.03 284H1051.39V279.016C1051.39 277.539 1052.24 276.633 1053.59 276.633C1054.93 276.633 1055.56 277.359 1055.56 278.875V284H1056.91V278.547C1056.91 276.547 1055.86 275.43 1053.97 275.43C1052.73 275.43 1051.94 275.953 1051.52 276.844H1051.39V275.578H1050.03V284ZM1059.62 284H1060.98V276.703H1062.89V275.578H1060.98V274.68C1060.98 273.758 1061.37 273.281 1062.34 273.281C1062.58 273.281 1062.81 273.289 1062.97 273.32V272.234C1062.69 272.18 1062.39 272.156 1062.06 272.156C1060.46 272.156 1059.62 272.961 1059.62 274.641V275.578H1058.22V276.703H1059.62V284ZM1065.25 273.953C1065.77 273.953 1066.19 273.531 1066.19 273.016C1066.19 272.5 1065.77 272.078 1065.25 272.078C1064.74 272.078 1064.31 272.5 1064.31 273.016C1064.31 273.531 1064.74 273.953 1065.25 273.953ZM1064.56 284H1065.92V275.578H1064.56V284ZM1068.17 284H1069.53V278.781C1069.53 277.547 1070.45 276.727 1071.74 276.727C1072.04 276.727 1072.3 276.758 1072.58 276.805V275.484C1072.45 275.461 1072.16 275.43 1071.9 275.43C1070.76 275.43 1069.97 275.945 1069.65 276.828H1069.53V275.578H1068.17V284ZM1074.1 284H1075.46V278.781C1075.46 277.594 1076.29 276.633 1077.39 276.633C1078.46 276.633 1079.14 277.281 1079.14 278.281V284H1080.5V278.586C1080.5 277.516 1081.28 276.633 1082.45 276.633C1083.63 276.633 1084.21 277.25 1084.21 278.492V284H1085.56V278.18C1085.56 276.414 1084.6 275.43 1082.88 275.43C1081.72 275.43 1080.76 276.016 1080.31 276.906H1080.18C1079.79 276.031 1078.99 275.43 1077.85 275.43C1076.75 275.43 1075.96 275.953 1075.58 276.859H1075.46V275.578H1074.1V284ZM1090.01 284.148C1091.14 284.148 1092.03 283.656 1092.56 282.758H1092.68V284H1094.04V278.234C1094.04 276.484 1092.89 275.43 1090.84 275.43C1089.04 275.43 1087.76 276.32 1087.54 277.641L1087.53 277.688H1088.89L1088.9 277.664C1089.12 277.008 1089.78 276.633 1090.79 276.633C1092.05 276.633 1092.68 277.195 1092.68 278.234V279L1090.27 279.148C1088.31 279.266 1087.2 280.133 1087.2 281.633V281.648C1087.2 283.18 1088.41 284.148 1090.01 284.148ZM1088.59 281.617V281.602C1088.59 280.766 1089.15 280.312 1090.43 280.234L1092.68 280.094V280.859C1092.68 282.062 1091.67 282.969 1090.29 282.969C1089.31 282.969 1088.59 282.469 1088.59 281.617ZM1099.2 284.062C1099.46 284.062 1099.72 284.031 1099.99 283.984V282.828C1099.74 282.852 1099.6 282.859 1099.36 282.859C1098.49 282.859 1098.14 282.461 1098.14 281.469V276.703H1099.99V275.578H1098.14V273.398H1096.74V275.578H1095.41V276.703H1096.74V281.812C1096.74 283.422 1097.46 284.062 1099.2 284.062ZM1102.42 273.953C1102.93 273.953 1103.35 273.531 1103.35 273.016C1103.35 272.5 1102.93 272.078 1102.42 272.078C1101.9 272.078 1101.48 272.5 1101.48 273.016C1101.48 273.531 1101.9 273.953 1102.42 273.953ZM1101.73 284H1103.09V275.578H1101.73V284ZM1108.79 284.148C1111.19 284.148 1112.68 282.492 1112.68 279.797V279.781C1112.68 277.078 1111.19 275.43 1108.79 275.43C1106.39 275.43 1104.91 277.078 1104.91 279.781V279.797C1104.91 282.492 1106.39 284.148 1108.79 284.148ZM1108.79 282.945C1107.2 282.945 1106.3 281.781 1106.3 279.797V279.781C1106.3 277.789 1107.2 276.633 1108.79 276.633C1110.39 276.633 1111.28 277.789 1111.28 279.781V279.797C1111.28 281.781 1110.39 282.945 1108.79 282.945ZM1114.46 284H1115.82V279.016C1115.82 277.539 1116.68 276.633 1118.02 276.633C1119.36 276.633 1119.99 277.359 1119.99 278.875V284H1121.35V278.547C1121.35 276.547 1120.29 275.43 1118.4 275.43C1117.16 275.43 1116.37 275.953 1115.95 276.844H1115.82V275.578H1114.46V284ZM1127.68 286.812H1129.04V282.672H1129.17C1129.63 283.57 1130.64 284.148 1131.79 284.148C1133.93 284.148 1135.32 282.438 1135.32 279.797V279.781C1135.32 277.156 1133.93 275.43 1131.79 275.43C1130.62 275.43 1129.68 275.984 1129.17 276.922H1129.04V275.578H1127.68V286.812ZM1131.48 282.945C1129.95 282.945 1129.01 281.742 1129.01 279.797V279.781C1129.01 277.836 1129.95 276.633 1131.48 276.633C1133.02 276.633 1133.93 277.82 1133.93 279.781V279.797C1133.93 281.758 1133.02 282.945 1131.48 282.945ZM1139.44 284.148C1140.57 284.148 1141.46 283.656 1141.99 282.758H1142.11V284H1143.47V278.234C1143.47 276.484 1142.32 275.43 1140.27 275.43C1138.47 275.43 1137.19 276.32 1136.97 277.641L1136.97 277.688H1138.32L1138.33 277.664C1138.55 277.008 1139.22 276.633 1140.22 276.633C1141.48 276.633 1142.11 277.195 1142.11 278.234V279L1139.7 279.148C1137.74 279.266 1136.63 280.133 1136.63 281.633V281.648C1136.63 283.18 1137.84 284.148 1139.44 284.148ZM1138.02 281.617V281.602C1138.02 280.766 1138.58 280.312 1139.86 280.234L1142.11 280.094V280.859C1142.11 282.062 1141.11 282.969 1139.72 282.969C1138.75 282.969 1138.02 282.469 1138.02 281.617ZM1149.11 286.969C1151.4 286.969 1152.86 285.766 1152.86 283.883V275.578H1151.5V276.969H1151.4C1150.89 276.016 1149.97 275.43 1148.78 275.43C1146.57 275.43 1145.22 277.141 1145.22 279.5V279.516C1145.22 281.875 1146.57 283.562 1148.75 283.562C1149.9 283.562 1150.86 283.039 1151.39 282.109H1151.51V283.812C1151.51 285.055 1150.61 285.766 1149.11 285.766C1147.9 285.766 1147.15 285.312 1147 284.672L1146.99 284.664H1145.58L1145.57 284.672C1145.78 286.055 1147.07 286.969 1149.11 286.969ZM1149.04 282.359C1147.48 282.359 1146.61 281.188 1146.61 279.516V279.5C1146.61 277.828 1147.48 276.633 1149.04 276.633C1150.6 276.633 1151.54 277.828 1151.54 279.5V279.516C1151.54 281.188 1150.61 282.359 1149.04 282.359ZM1158.5 284.148C1160.49 284.148 1161.69 283.023 1161.98 281.883L1162 281.82H1160.64L1160.61 281.891C1160.38 282.398 1159.68 282.938 1158.54 282.938C1157.04 282.938 1156.08 281.922 1156.04 280.18H1162.1V279.648C1162.1 277.133 1160.71 275.43 1158.42 275.43C1156.13 275.43 1154.65 277.211 1154.65 279.812V279.82C1154.65 282.461 1156.1 284.148 1158.5 284.148ZM1158.41 276.641C1159.65 276.641 1160.58 277.43 1160.72 279.094H1156.06C1156.21 277.492 1157.16 276.641 1158.41 276.641ZM1164.43 277.172H1165.56L1165.72 272.727H1164.27L1164.43 277.172ZM1167.33 277.172H1168.45L1168.61 272.727H1167.16L1167.33 277.172Z" fill="black"/>
<path fill-rule="evenodd" clip-rule="evenodd" d="M1119 77L158 76.9999V76L1119 76.0001V77Z" fill="#FF5B24"/>
<path d="M168.424 85C173.395 85 177.424 80.9706 177.424 76C177.424 71.0294 173.395 67 168.424 67C163.454 67 159.424 71.0294 159.424 76C159.424 80.9706 163.454 85 168.424 85Z" fill="white" stroke="#FF5B24" stroke-width="6"/>
<path d="M403.424 85C408.395 85 412.424 80.9706 412.424 76C412.424 71.0294 408.395 67 403.424 67C398.454 67 394.424 71.0294 394.424 76C394.424 80.9706 398.454 85 403.424 85Z" fill="white" stroke="#FF5B24" stroke-width="6"/>
<path d="M633.424 85C638.395 85 642.424 80.9706 642.424 76C642.424 71.0294 638.395 67 633.424 67C628.454 67 624.424 71.0294 624.424 76C624.424 80.9706 628.454 85 633.424 85Z" fill="white" stroke="#FF5B24" stroke-width="6"/>
<circle cx="633" cy="168" r="53.3333" fill="#FFF4EC"/>
<path d="M591.467 149.293C590.546 144.071 594.033 139.092 599.254 138.171L620.263 134.467C625.485 133.546 630.464 137.033 631.385 142.254L637.96 179.545C638.881 184.767 635.394 189.746 630.173 190.667L609.164 194.371C603.942 195.292 598.963 191.805 598.043 186.584L591.467 149.293Z" fill="#FF5B24"/>
<path d="M598.54 164.834C598.028 161.933 599.965 159.167 602.866 158.655L623.875 154.951C626.776 154.439 629.542 156.376 630.054 159.277L633.758 180.286C634.27 183.187 632.333 185.953 629.432 186.465L608.423 190.169C605.522 190.681 602.756 188.744 602.244 185.843L598.54 164.834Z" fill="#FCFBFE"/>
<g clip-path="url(#clip1_1122_50321)">
<path fill-rule="evenodd" clip-rule="evenodd" d="M606.418 163.445L610.795 162.673C612.246 162.417 613.629 163.386 613.885 164.836L614.656 169.213C614.912 170.663 613.944 172.046 612.493 172.302L608.116 173.074C606.666 173.33 605.283 172.361 605.027 170.911L604.255 166.534C604 165.083 604.968 163.7 606.418 163.445ZM606.65 164.758C605.925 164.886 605.441 165.577 605.568 166.302L606.34 170.679C606.468 171.404 607.16 171.889 607.885 171.761L612.262 170.989C612.987 170.861 613.471 170.17 613.343 169.444L612.571 165.068C612.444 164.342 611.752 163.858 611.027 163.986L606.65 164.758Z" fill="#551488"/>
<path fill-rule="evenodd" clip-rule="evenodd" d="M617.798 161.438L622.175 160.666C623.626 160.411 625.009 161.379 625.265 162.829L626.036 167.206C626.292 168.657 625.324 170.04 623.873 170.296L619.496 171.067C618.046 171.323 616.663 170.355 616.407 168.904L615.635 164.527C615.38 163.077 616.348 161.694 617.798 161.438ZM618.03 162.751C617.305 162.879 616.821 163.571 616.948 164.296L617.72 168.673C617.848 169.398 618.54 169.882 619.265 169.754L623.642 168.982C624.367 168.855 624.851 168.163 624.723 167.438L623.951 163.061C623.824 162.336 623.132 161.851 622.407 161.979L618.03 162.751Z" fill="#551488"/>
<path fill-rule="evenodd" clip-rule="evenodd" d="M608.425 174.825L612.802 174.053C614.252 173.797 615.635 174.766 615.891 176.216L616.663 180.593C616.919 182.043 615.95 183.426 614.5 183.682L610.123 184.454C608.673 184.71 607.289 183.741 607.034 182.291L606.262 177.914C606.006 176.463 606.975 175.08 608.425 174.825ZM608.657 176.138C607.931 176.266 607.447 176.957 607.575 177.682L608.347 182.059C608.475 182.784 609.166 183.269 609.891 183.141L614.268 182.369C614.993 182.241 615.478 181.55 615.35 180.824L614.578 176.448C614.45 175.722 613.759 175.238 613.033 175.366L608.657 176.138Z" fill="#551488"/>
<path d="M607.473 166.869C607.431 166.627 607.592 166.397 607.834 166.354L610.46 165.891C610.702 165.848 610.932 166.01 610.975 166.252L611.438 168.878C611.481 169.119 611.319 169.35 611.078 169.393L608.451 169.856C608.21 169.898 607.979 169.737 607.937 169.495L607.473 166.869Z" fill="#551488"/>
<path d="M618.853 164.862C618.811 164.621 618.972 164.39 619.214 164.348L621.84 163.884C622.082 163.842 622.312 164.003 622.355 164.245L622.818 166.871C622.861 167.113 622.699 167.343 622.458 167.386L619.831 167.849C619.59 167.892 619.359 167.73 619.317 167.489L618.853 164.862Z" fill="#551488"/>
<path d="M609.48 178.249C609.437 178.007 609.599 177.777 609.841 177.734L612.467 177.271C612.708 177.228 612.939 177.39 612.982 177.632L613.445 180.258C613.487 180.499 613.326 180.73 613.084 180.773L610.458 181.236C610.216 181.278 609.986 181.117 609.943 180.875L609.48 178.249Z" fill="#551488"/>
<path d="M620.86 176.242C620.817 176.001 620.979 175.77 621.221 175.728L623.847 175.264C624.088 175.222 624.319 175.383 624.362 175.625L624.825 178.251C624.867 178.493 624.706 178.723 624.464 178.766L621.838 179.229C621.596 179.272 621.366 179.11 621.323 178.869L620.86 176.242Z" fill="#551488"/>
<path d="M618.286 174.44C618.243 174.198 618.405 173.968 618.646 173.925L619.522 173.771C619.763 173.728 619.994 173.889 620.037 174.131L620.191 175.007C620.233 175.248 620.072 175.479 619.83 175.521L618.955 175.676C618.713 175.718 618.483 175.557 618.44 175.315L618.286 174.44Z" fill="#551488"/>
<path d="M619.366 180.568C619.324 180.326 619.485 180.095 619.727 180.053L620.602 179.898C620.844 179.856 621.074 180.017 621.117 180.259L621.271 181.134C621.314 181.376 621.153 181.606 620.911 181.649L620.035 181.803C619.794 181.846 619.563 181.685 619.521 181.443L619.366 180.568Z" fill="#551488"/>
<path d="M624.413 173.359C624.371 173.118 624.532 172.887 624.774 172.844L625.649 172.69C625.891 172.648 626.122 172.809 626.164 173.051L626.319 173.926C626.361 174.168 626.2 174.398 625.958 174.441L625.083 174.595C624.841 174.638 624.61 174.476 624.568 174.235L624.413 173.359Z" fill="#551488"/>
<path d="M625.494 179.487C625.451 179.245 625.613 179.015 625.854 178.972L626.73 178.818C626.972 178.775 627.202 178.937 627.245 179.178L627.399 180.054C627.442 180.295 627.28 180.526 627.039 180.569L626.163 180.723C625.921 180.766 625.691 180.604 625.648 180.362L625.494 179.487Z" fill="#551488"/>
</g>
<path fill-rule="evenodd" clip-rule="evenodd" d="M613.541 144.622C614.342 144.48 614.923 143.76 614.771 142.899L614.771 142.899C614.619 142.037 613.827 141.559 613.026 141.7C612.225 141.841 611.644 142.562 611.796 143.423C611.948 144.285 612.74 144.763 613.541 144.622ZM615.902 146.639C615.135 148.087 614.241 149.152 612.391 149.478C610.504 149.811 608.837 148.946 607.402 147.5C606.825 146.906 606.093 146.881 605.641 147.328C605.224 147.749 605.235 148.481 605.783 149.022C607.785 151.121 610.222 152.12 612.778 151.669C615.123 151.256 616.756 149.809 617.856 147.684C618.268 146.897 618.123 146.189 617.539 145.886C616.996 145.596 616.314 145.852 615.902 146.639Z" fill="white"/>
<path fill-rule="evenodd" clip-rule="evenodd" d="M634.028 221.324L638.003 175.888L679.976 179.56L678.561 195.74C669.363 210.815 652.894 220.967 634.028 221.324Z" fill="#FFD3BB"/>
<path d="M633.254 113.905C633.562 110.384 636.666 107.779 640.187 108.087L672.066 110.876C675.587 111.184 678.192 114.288 677.884 117.81L672.213 182.629C671.905 186.15 668.8 188.755 665.279 188.446L633.401 185.657C629.88 185.349 627.275 182.245 627.583 178.724L633.254 113.905Z" fill="#FF5B24"/>
<rect x="632.929" y="117.624" width="44.8" height="57.6" transform="rotate(5 632.929 117.624)" fill="#FF985F"/>
<g clip-path="url(#clip2_1122_50321)">
<path fill-rule="evenodd" clip-rule="evenodd" d="M643.749 128.564C643.921 126.608 645.645 125.161 647.601 125.332L652.029 125.72C652.518 125.762 652.88 126.194 652.837 126.683C652.794 127.172 652.363 127.534 651.874 127.491L647.446 127.103C646.468 127.018 645.606 127.741 645.52 128.719L645.133 133.147C645.09 133.636 644.659 133.998 644.17 133.955C643.681 133.912 643.319 133.481 643.362 132.992L643.749 128.564Z" fill="white"/>
<path fill-rule="evenodd" clip-rule="evenodd" d="M663.762 144.592C663.591 146.548 661.866 147.995 659.91 147.824L655.483 147.437C654.994 147.394 654.632 146.963 654.675 146.474C654.717 145.985 655.148 145.623 655.638 145.666L660.065 146.053C661.043 146.139 661.905 145.415 661.991 144.437L662.378 140.009C662.421 139.52 662.852 139.159 663.341 139.201C663.83 139.244 664.192 139.675 664.149 140.164L663.762 144.592Z" fill="white"/>
<path fill-rule="evenodd" clip-rule="evenodd" d="M661.769 126.572C663.726 126.743 665.173 128.468 665.002 130.424L664.614 134.851C664.571 135.34 664.14 135.702 663.651 135.659C663.162 135.617 662.8 135.185 662.843 134.696L663.231 130.269C663.316 129.291 662.593 128.428 661.615 128.343L657.187 127.956C656.698 127.913 656.336 127.482 656.379 126.993C656.422 126.504 656.853 126.142 657.342 126.185L661.769 126.572Z" fill="white"/>
<path fill-rule="evenodd" clip-rule="evenodd" d="M645.742 146.585C643.786 146.413 642.339 144.689 642.51 142.733L642.897 138.305C642.94 137.816 643.371 137.454 643.86 137.497C644.349 137.54 644.711 137.971 644.668 138.46L644.281 142.888C644.195 143.866 644.919 144.728 645.897 144.813L650.325 145.201C650.814 145.244 651.175 145.675 651.133 146.164C651.09 146.653 650.659 147.015 650.17 146.972L645.742 146.585Z" fill="white"/>
</g>
<rect x="643.808" y="164.618" width="14.9333" height="6.4" rx="3.2" transform="rotate(5 643.808 164.618)" fill="#FF5B24"/>
<path d="M673.622 202.561L656.334 201.048C654.799 197.764 654.082 194.044 654.42 190.173C655.447 178.436 665.795 169.754 677.532 170.78C678.615 170.875 679.673 171.049 680.699 171.297L678.561 195.74C677.093 198.145 675.44 200.426 673.622 202.561Z" fill="#FFD3BB"/>
<path d="M624.089 145.225C624.372 141.998 627.217 139.61 630.445 139.892L641.071 140.822C644.299 141.104 646.686 143.95 646.404 147.178C646.122 150.405 643.276 152.793 640.048 152.511C643.276 152.793 645.664 155.639 645.381 158.866C645.099 162.094 642.253 164.482 639.026 164.199C642.253 164.482 644.641 167.327 644.359 170.555C644.076 173.783 641.231 176.17 638.003 175.888L627.377 174.958C624.149 174.676 621.762 171.83 622.044 168.603C622.326 165.375 625.172 162.987 628.4 163.27C625.172 162.987 622.784 160.142 623.067 156.914C623.349 153.686 626.194 151.299 629.422 151.581C626.194 151.299 623.807 148.453 624.089 145.225Z" fill="#FFD3BB"/>
<path fill-rule="evenodd" clip-rule="evenodd" d="M654.726 159.148C655.047 155.481 658.28 152.767 661.948 153.088L665.401 153.39C674.645 154.199 681.482 162.348 680.673 171.591L679.72 182.482C679.399 186.15 676.166 188.864 672.498 188.543C668.83 188.222 666.117 184.988 666.438 181.32L667.391 170.429C667.558 168.521 666.147 166.84 664.239 166.673L660.786 166.371C657.118 166.05 654.405 162.816 654.726 159.148Z" fill="#FFD3BB"/>
<circle cx="399" cy="168" r="53.3333" fill="#FFF4EC"/>
<path d="M450.465 182.665C447.287 193.865 440.542 203.722 431.254 210.741C421.966 217.76 410.642 221.558 399 221.558C387.358 221.558 376.034 217.76 366.746 210.741C357.458 203.722 350.713 193.865 347.535 182.665C348.216 169.552 353.905 157.201 363.428 148.16C372.95 139.119 385.58 134.077 398.71 134.076H399.29C412.42 134.077 425.05 139.119 434.572 148.16C444.095 157.201 449.783 169.552 450.465 182.665Z" fill="#39134C"/>
<path d="M399 133.404H383.997C383.305 133.404 382.62 133.54 381.981 133.805C381.342 134.069 380.762 134.457 380.273 134.946C379.784 135.435 379.396 136.016 379.131 136.655C378.866 137.294 378.73 137.978 378.73 138.67C378.728 139.363 378.863 140.049 379.127 140.69C379.391 141.331 379.778 141.913 380.267 142.403C380.757 142.894 381.338 143.283 381.978 143.549C382.618 143.814 383.304 143.951 383.997 143.951H399V133.404Z" fill="#AEAABF"/>
<path d="M399.157 143.951H414.161C415.556 143.951 416.895 143.397 417.881 142.41C418.868 141.423 419.422 140.085 419.422 138.69C419.423 137.998 419.287 137.314 419.023 136.675C418.759 136.036 418.372 135.455 417.883 134.966C417.394 134.477 416.814 134.089 416.175 133.824C415.537 133.56 414.852 133.423 414.161 133.423H399.157V143.951Z" fill="#AEAABF"/>
<path d="M398.553 132.761L399.437 128.869" stroke="#AEAABF" stroke-width="3.0092" stroke-miterlimit="10" stroke-linecap="round"/>
<path d="M399.957 132.884L402.166 130.052" stroke="#AEAABF" stroke-width="3.0092" stroke-miterlimit="10" stroke-linecap="round"/>
<path d="M399 176.927C411.32 176.927 421.307 166.94 421.307 154.621C421.307 142.301 411.32 132.314 399 132.314C386.68 132.314 376.693 142.301 376.693 154.621C376.693 166.94 386.68 176.927 399 176.927Z" fill="#FFD3BB"/>
<path d="M417.911 140.393H380.09C378.84 140.393 377.827 141.404 377.827 142.653C377.827 143.901 378.84 144.913 380.09 144.913H417.911C419.16 144.913 420.173 143.901 420.173 142.653C420.173 141.404 419.16 140.393 417.911 140.393Z" fill="#FFD3BB"/>
<path d="M406.013 154.13C406.196 154.129 406.375 154.076 406.528 153.976C406.681 153.876 406.802 153.734 406.876 153.567C406.95 153.4 406.975 153.215 406.946 153.034C406.918 152.854 406.837 152.685 406.715 152.549C405.748 151.458 404.56 150.584 403.23 149.985C401.9 149.386 400.458 149.077 399 149.077C397.541 149.077 396.099 149.386 394.769 149.985C393.439 150.584 392.252 151.458 391.284 152.549C391.162 152.685 391.082 152.854 391.053 153.034C391.025 153.215 391.049 153.4 391.123 153.567C391.197 153.734 391.318 153.876 391.472 153.976C391.625 154.076 391.803 154.129 391.986 154.13H406.013Z" fill="#AEAABF"/>
<path d="M396.88 143.912H401.12V148.82C401.12 149.382 400.897 149.921 400.499 150.319C400.102 150.716 399.562 150.94 399 150.94C398.438 150.94 397.898 150.716 397.501 150.319C397.103 149.921 396.88 149.382 396.88 148.82V143.912Z" fill="#FFD3BB"/>
<path d="M396.919 147.323C398.281 146.948 399.719 146.948 401.081 147.323" stroke="#722AC9" stroke-width="1.41718" stroke-miterlimit="10"/>
<path d="M395.226 149.556C396.183 149.556 396.958 148.78 396.958 147.823C396.958 146.866 396.183 146.091 395.226 146.091C394.269 146.091 393.493 146.866 393.493 147.823C393.493 148.78 394.269 149.556 395.226 149.556Z" stroke="#722AC9" stroke-width="1.41718" stroke-miterlimit="10"/>
<path d="M402.774 149.556C403.731 149.556 404.507 148.78 404.507 147.823C404.507 146.866 403.731 146.091 402.774 146.091C401.817 146.091 401.042 146.866 401.042 147.823C401.042 148.78 401.817 149.556 402.774 149.556Z" stroke="#722AC9" stroke-width="1.41718" stroke-miterlimit="10"/>
<path d="M397.272 144.496C397.668 144.496 397.989 144.175 397.989 143.779C397.989 143.383 397.668 143.062 397.272 143.062C396.876 143.062 396.556 143.383 396.556 143.779C396.556 144.175 396.876 144.496 397.272 144.496Z" fill="#39134C"/>
<path d="M400.728 144.496C401.123 144.496 401.444 144.175 401.444 143.779C401.444 143.383 401.123 143.062 400.728 143.062C400.332 143.062 400.011 143.383 400.011 143.779C400.011 144.175 400.332 144.496 400.728 144.496Z" fill="#39134C"/>
<path d="M443.717 197.374C438.848 204.788 432.212 210.875 424.406 215.087C416.6 219.3 407.87 221.505 399 221.505C390.13 221.505 381.4 219.3 373.594 215.087C365.788 210.875 359.152 204.788 354.283 197.374H443.717Z" fill="#FF5B24"/>
<path d="M431.584 197.374H417.945V187.067H421.297C424.031 187.067 426.652 188.153 428.585 190.086C430.518 192.019 431.604 194.641 431.604 197.374H431.584Z" fill="#FFD3BB"/>
<path d="M376.703 187.087H380.056V197.394H366.416C366.416 194.664 367.499 192.045 369.428 190.113C371.357 188.18 373.973 187.092 376.703 187.087Z" fill="#FFD3BB"/>
<path d="M378.877 168.741H419.123C419.547 168.741 419.967 168.825 420.359 168.987C420.75 169.149 421.106 169.387 421.406 169.687C421.706 169.987 421.944 170.343 422.106 170.735C422.269 171.127 422.352 171.547 422.352 171.971V197.374H375.648V171.971C375.648 171.547 375.731 171.127 375.894 170.735C376.056 170.343 376.294 169.987 376.594 169.687C376.894 169.387 377.25 169.149 377.642 168.987C378.033 168.825 378.453 168.741 378.877 168.741Z" fill="#AEAABF"/>
<path d="M399 187.087C400.553 187.087 401.812 185.828 401.812 184.275C401.812 182.722 400.553 181.462 399 181.462C397.447 181.462 396.188 182.722 396.188 184.275C396.188 185.828 397.447 187.087 399 187.087Z" fill="white"/>
<path d="M405.38 155.239C405.38 155.89 405.122 156.514 404.662 156.974C404.201 157.435 403.577 157.693 402.926 157.693C402.276 157.693 401.651 157.435 401.191 156.974C400.731 156.514 400.472 155.89 400.472 155.239H405.38Z" fill="#39134C"/>
<path d="M458.386 176.834H438.754V197.448H458.386V176.834Z" fill="#FF985F"/>
<path d="M438.754 176.834H431.883V197.448H438.754V176.834Z" fill="#FF5B24"/>
<path d="M451.024 176.834H446.116V187.141H451.024V176.834Z" fill="#FF5B24"/>
<path d="M872 85C876.971 85 881 80.9706 881 76C881 71.0294 876.971 67 872 67C867.029 67 863 71.0294 863 76C863 80.9706 867.029 85 872 85Z" fill="white" stroke="#FF5B24" stroke-width="6"/>
<path d="M1111 85C1115.97 85 1120 80.9706 1120 76C1120 71.0294 1115.97 67 1111 67C1106.03 67 1102 71.0294 1102 76C1102 80.9706 1106.03 85 1111 85Z" fill="white" stroke="#FF5B24" stroke-width="6"/>
<circle cx="873" cy="168" r="53.3333" fill="#FFF4EC"/>
<path fill-rule="evenodd" clip-rule="evenodd" d="M860.733 219.916V178.133H902.867V212.193C894.345 217.963 884.066 221.333 873 221.333C868.779 221.333 864.672 220.843 860.733 219.916Z" fill="#FFD3BB"/>
<path d="M850.6 116.8C850.6 113.265 853.465 110.4 857 110.4H889C892.535 110.4 895.4 113.265 895.4 116.8V181.867C895.4 185.401 892.535 188.267 889 188.267H857C853.465 188.267 850.6 185.401 850.6 181.867V116.8Z" fill="#FF5B24"/>
<rect x="850.6" y="120.533" width="44.8" height="57.6" fill="#FF985F"/>
<path d="M860.2 136C860.2 133.644 862.11 131.733 864.467 131.733L881.533 131.733C883.89 131.733 885.8 133.644 885.8 136L885.8 153.067C885.8 155.423 883.89 157.333 881.533 157.333L864.467 157.333C862.11 157.333 860.2 155.423 860.2 153.067L860.2 136Z" fill="white"/>
<path fill-rule="evenodd" clip-rule="evenodd" d="M879.827 137.92C880.534 138.45 880.677 139.453 880.147 140.16L872.147 150.827C871.868 151.198 871.443 151.43 870.98 151.463C870.517 151.496 870.063 151.326 869.735 150.998L865.469 146.732C864.844 146.107 864.844 145.094 865.469 144.469C866.093 143.844 867.107 143.844 867.731 144.469L870.694 147.431L877.587 138.24C878.117 137.533 879.12 137.39 879.827 137.92Z" fill="#551488"/>
<path fill-rule="evenodd" clip-rule="evenodd" d="M844.2 148.8C844.2 145.56 846.827 142.933 850.067 142.933H860.733C863.973 142.933 866.6 145.56 866.6 148.8C866.6 152.04 863.973 154.666 860.733 154.666C863.973 154.666 866.6 157.293 866.6 160.533C866.6 163.773 863.973 166.4 860.733 166.4C863.973 166.4 866.6 169.026 866.6 172.266C866.6 175.507 863.973 178.133 860.733 178.133H850.067C846.827 178.133 844.2 175.507 844.2 172.266C844.2 169.026 846.827 166.4 850.067 166.4C846.827 166.4 844.2 163.773 844.2 160.533C844.2 157.293 846.827 154.666 850.067 154.666C846.827 154.666 844.2 152.04 844.2 148.8ZM889.533 172.155C882.864 175.762 878.333 182.819 878.333 190.933H899.667V186.762C901.586 185.592 902.867 183.479 902.867 181.066V170.133C902.867 160.855 895.345 153.333 886.067 153.333H882.6C878.918 153.333 875.933 156.318 875.933 160C875.933 163.682 878.918 166.666 882.6 166.666H886.067C887.981 166.666 889.533 168.219 889.533 170.133V172.155Z" fill="#FFD3BB"/>
<path d="M1111 221.333C1140.46 221.333 1164.33 197.455 1164.33 168C1164.33 138.545 1140.46 114.667 1111 114.667C1081.54 114.667 1057.67 138.545 1057.67 168C1057.67 197.455 1081.54 221.333 1111 221.333Z" fill="#EFEEF3"/>
<path d="M1096.99 148.8C1097.71 148.8 1098.4 149.085 1098.91 149.593C1099.42 150.101 1099.7 150.791 1099.7 151.509V184.928C1099.7 185.284 1099.63 185.636 1099.5 185.965C1099.36 186.293 1099.16 186.592 1098.91 186.844C1098.66 187.095 1098.36 187.295 1098.03 187.431C1097.7 187.567 1097.35 187.637 1096.99 187.637H1077.96C1077.24 187.634 1076.56 187.347 1076.05 186.84C1075.55 186.332 1075.27 185.644 1075.27 184.928V151.509C1075.27 151.153 1075.34 150.801 1075.47 150.471C1075.61 150.142 1075.81 149.844 1076.06 149.592C1076.31 149.34 1076.61 149.141 1076.94 149.005C1077.27 148.869 1077.62 148.799 1077.98 148.8H1096.99Z" fill="#551488"/>
<path d="M1083.16 153.114H1080.29C1079.49 153.114 1078.85 153.759 1078.85 154.554V158.869C1078.85 159.664 1079.49 160.309 1080.29 160.309H1083.16C1083.96 160.309 1084.6 159.664 1084.6 158.869V154.554C1084.6 153.759 1083.96 153.114 1083.16 153.114Z" fill="#FFF4EC"/>
<path d="M1096.29 148.8H1091.98V187.637H1096.29V148.8Z" fill="#FFF4EC"/>
<path d="M1125.01 187.637C1124.65 187.637 1124.3 187.567 1123.97 187.431C1123.64 187.295 1123.34 187.095 1123.09 186.844C1122.84 186.592 1122.64 186.293 1122.5 185.965C1122.37 185.636 1122.3 185.284 1122.3 184.928V151.509C1122.3 150.791 1122.58 150.101 1123.09 149.593C1123.6 149.085 1124.29 148.8 1125.01 148.8H1144.07C1144.78 148.811 1145.46 149.101 1145.95 149.608C1146.45 150.115 1146.73 150.798 1146.73 151.509V184.928C1146.73 185.284 1146.66 185.637 1146.53 185.966C1146.39 186.295 1146.19 186.594 1145.94 186.845C1145.69 187.097 1145.39 187.297 1145.06 187.432C1144.73 187.568 1144.37 187.638 1144.02 187.637H1125.01Z" fill="#551488"/>
<path d="M1134.53 177.327C1137.54 177.327 1139.99 174.882 1139.99 171.866C1139.99 168.85 1137.54 166.405 1134.53 166.405C1131.51 166.405 1129.06 168.85 1129.06 171.866C1129.06 174.882 1131.51 177.327 1134.53 177.327Z" fill="#FF5B24"/>
<path opacity="0.8" d="M1134.53 170.032C1137.54 170.032 1139.99 167.587 1139.99 164.571C1139.99 161.555 1137.54 159.109 1134.53 159.109C1131.51 159.109 1129.06 161.555 1129.06 164.571C1129.06 167.587 1131.51 170.032 1134.53 170.032Z" fill="#FFF4EC"/>
<path d="M1170.16 148.8C1170.88 148.8 1171.56 149.085 1172.07 149.593C1172.58 150.101 1172.87 150.791 1172.87 151.509V184.928C1172.87 185.284 1172.8 185.636 1172.66 185.965C1172.52 186.293 1172.32 186.592 1172.07 186.844C1171.82 187.095 1171.52 187.295 1171.19 187.431C1170.87 187.567 1170.51 187.637 1170.16 187.637H1151.12C1150.77 187.638 1150.41 187.568 1150.08 187.432C1149.76 187.296 1149.46 187.097 1149.21 186.845C1148.95 186.593 1148.75 186.294 1148.62 185.965C1148.48 185.636 1148.41 185.284 1148.41 184.928V151.509C1148.41 151.153 1148.48 150.801 1148.62 150.471C1148.75 150.142 1148.95 149.844 1149.21 149.592C1149.46 149.34 1149.76 149.141 1150.08 149.005C1150.41 148.869 1150.77 148.799 1151.12 148.8H1170.16Z" fill="#FF5B24"/>
<path d="M1156.32 153.114H1153.45C1152.65 153.114 1152.01 153.759 1152.01 154.554V158.869C1152.01 159.664 1152.65 160.309 1153.45 160.309H1156.32C1157.12 160.309 1157.76 159.664 1157.76 158.869V154.554C1157.76 153.759 1157.12 153.114 1156.32 153.114Z" fill="#FFF4EC"/>
<path d="M1169.45 148.8H1165.14V187.637H1169.45V148.8Z" fill="#551488"/>
<path d="M1070.88 148.8C1071.23 148.799 1071.59 148.869 1071.91 149.005C1072.24 149.141 1072.54 149.34 1072.79 149.592C1073.05 149.844 1073.25 150.142 1073.38 150.471C1073.52 150.801 1073.59 151.153 1073.59 151.509V184.928C1073.59 185.284 1073.52 185.636 1073.38 185.965C1073.25 186.294 1073.05 186.593 1072.79 186.845C1072.54 187.097 1072.24 187.296 1071.91 187.432C1071.59 187.568 1071.23 187.638 1070.88 187.637H1051.84C1051.12 187.637 1050.43 187.352 1049.93 186.844C1049.42 186.336 1049.13 185.646 1049.13 184.928V151.509C1049.13 150.791 1049.42 150.101 1049.93 149.593C1050.43 149.085 1051.12 148.8 1051.84 148.8H1070.88Z" fill="#FF985F"/>
<path d="M1057.04 153.114H1054.17C1053.37 153.114 1052.73 153.759 1052.73 154.554V158.869C1052.73 159.664 1053.37 160.309 1054.17 160.309H1057.04C1057.84 160.309 1058.48 159.664 1058.48 158.869V154.554C1058.48 153.759 1057.84 153.114 1057.04 153.114Z" fill="#FFF4EC"/>
<path d="M1070.17 148.8H1065.86V187.637H1070.17V148.8Z" fill="#551488"/>
<path d="M1088.6 135.467C1088.6 131.932 1091.47 129.067 1095 129.067L1127 129.067C1130.53 129.067 1133.4 131.932 1133.4 135.467L1133.4 200.534C1133.4 204.068 1130.53 206.934 1127 206.934L1095 206.934C1091.47 206.934 1088.6 204.068 1088.6 200.534L1088.6 135.467Z" fill="#FF5B24"/>
<rect x="1088.6" y="139.2" width="44.8" height="57.6" fill="#FF985F"/>
<path d="M1111.31 164.52C1114.61 164.52 1116.48 162.914 1118.26 160.598C1119.25 159.348 1120.49 159.085 1121.38 159.795C1122.27 160.51 1122.36 161.844 1121.38 163.094C1118.8 166.48 1115.5 168.533 1111.31 168.533C1106.76 168.533 1102.75 166.037 1099.98 161.668C1099.18 160.51 1099.36 159.26 1100.25 158.637C1101.14 158.014 1102.48 158.282 1103.28 159.528C1105.25 162.471 1107.92 164.52 1111.31 164.52Z" fill="#FFF4EC"/>
<path d="M1114.78 156.233C1116.26 156.233 1117.46 155.035 1117.46 153.557C1117.46 152.079 1116.26 150.881 1114.78 150.881C1113.31 150.881 1112.11 152.079 1112.11 153.557C1112.11 155.035 1113.31 156.233 1114.78 156.233Z" fill="#FFF4EC"/>
<mask id="mask0_1122_50321" style="mask-type:alpha" maskUnits="userSpaceOnUse" x="88" y="88" width="160" height="160">
<path fill-rule="evenodd" clip-rule="evenodd" d="M88 248H168V221.333C168 221.333 168 221.333 168 221.333C138.545 221.333 114.667 197.455 114.667 168H88V248Z" fill="#CCCCCC"/>
<path fill-rule="evenodd" clip-rule="evenodd" d="M88 88H168V114.667C168 114.667 168 114.667 168 114.667C138.545 114.667 114.667 138.545 114.667 168H88V88Z" fill="#CCCCCC"/>
<path fill-rule="evenodd" clip-rule="evenodd" d="M248 88H168V114.667C197.455 114.667 221.333 138.545 221.333 168H248V88Z" fill="#CCCCCC"/>
<path fill-rule="evenodd" clip-rule="evenodd" d="M248 248H168V221.333C197.455 221.333 221.333 197.455 221.333 168H248V248Z" fill="#CCCCCC"/>
<circle r="53.3333" transform="matrix(-1 0 0 1 168 168)" fill="white"/>
</mask>
<g mask="url(#mask0_1122_50321)">
<circle r="53.3333" transform="matrix(-1 0 0 1 168 167.467)" fill="#EFEEF3"/>
<path d="M193.98 165.624L184.149 164.594L179.12 212.789L158.215 178.092" stroke="#FFB992" stroke-width="8.78341" stroke-linecap="round" stroke-linejoin="round"/>
<path d="M160.518 170.673C162.683 170.673 164.438 168.918 164.438 166.752V148.561C164.438 148.388 164.298 148.247 164.124 148.247H156.911C156.738 148.247 156.597 148.388 156.597 148.561V166.752C156.597 168.918 158.352 170.673 160.518 170.673Z" fill="#FFD3BB"/>
<path d="M158.812 157.183C148.936 157.183 140.93 165.19 140.93 175.066V215.728H176.695V175.066C176.695 165.19 168.689 157.183 158.812 157.183Z" fill="#551488"/>
<path d="M180.909 223.201H197.659C200.154 223.201 202.297 221.427 202.762 218.975L210.229 179.614C210.837 176.414 208.383 173.452 205.127 173.452H188.377C185.881 173.452 183.739 175.226 183.274 177.678L175.806 217.039C175.199 220.239 177.652 223.201 180.909 223.201Z" fill="#FF5B24"/>
<path d="M202.242 181.922C202.242 183.38 203.424 184.562 204.882 184.562C206.34 184.562 207.523 183.38 207.523 181.922C207.523 180.463 206.34 179.281 204.882 179.281C203.424 179.281 202.242 180.463 202.242 181.922Z" fill="#FFF4EC"/>
<path d="M163.919 154.506H157.117C154.27 154.506 151.962 156.814 151.962 159.661V161.386H169.073V159.661C169.073 156.814 166.765 154.506 163.919 154.506Z" fill="#551488"/>
<path d="M158.695 160.488H167.123C173.457 160.488 178.591 165.622 178.591 171.955C178.591 178.288 173.457 183.422 167.123 183.422H158.695V160.488Z" fill="#551488"/>
<path d="M183.819 215.728H125.556L149.08 168.101" stroke="#FFD3BB" stroke-width="8.22277" stroke-linecap="round" stroke-linejoin="round"/>
<path d="M140.93 165.334C143.69 159.286 150.724 156.37 157.001 158.806C163.279 161.243 166.503 168.141 164.46 174.468L140.93 165.334Z" fill="#551488"/>
<path d="M157.97 122.298C157.97 128.869 152.643 134.196 146.071 134.196C139.5 134.196 134.173 128.869 134.173 122.298C134.173 115.726 139.5 110.399 146.071 110.399C152.643 110.399 157.97 115.726 157.97 122.298Z" fill="#551488"/>
<path d="M157.97 129.671C157.97 134.571 161.942 138.543 166.841 138.543C171.741 138.543 175.713 134.571 175.713 129.671C175.713 124.772 171.741 120.8 166.841 120.8C161.942 120.8 157.97 124.772 157.97 129.671Z" fill="#551488"/>
<path d="M157.803 149.28C166.133 149.28 172.887 142.527 172.887 134.196C172.887 125.866 166.133 119.112 157.803 119.112C149.473 119.112 142.719 125.866 142.719 134.196C142.719 142.527 149.473 149.28 157.803 149.28Z" fill="#551488"/>
<path d="M161.564 152.082H160.715C154.164 152.082 148.854 146.771 148.854 140.221V136.082C148.854 129.532 154.164 124.222 160.715 124.222H161.564C168.114 124.222 173.425 129.532 173.425 136.082V140.221C173.425 146.771 168.114 152.082 161.564 152.082Z" fill="#FFD3BB"/>
<path d="M143.137 132.799C143.184 126.483 147.715 120.897 154.157 119.744C157.807 119.092 161.377 119.986 164.191 121.959C164.144 128.275 159.614 133.861 153.171 135.014C149.521 135.667 145.952 134.772 143.137 132.799Z" fill="#551488"/>
<path d="M155.72 119.541C150.111 121.321 145.609 125.758 143.823 131.482" stroke="#FF5B24" stroke-width="0.895908" stroke-miterlimit="10" stroke-linecap="round"/>
<path d="M166.331 136.499C166.331 138.517 167.967 140.153 169.984 140.153C172.002 140.153 173.638 138.517 173.638 136.499C173.638 134.482 172.002 132.846 169.984 132.846C167.967 132.846 166.331 134.482 166.331 136.499Z" stroke="#FF5B24" stroke-width="0.373762" stroke-miterlimit="10" stroke-linecap="round"/>
<path d="M166.844 138.045H165.818C165.236 138.045 164.764 138.517 164.764 139.099C164.764 139.681 165.236 140.153 165.818 140.153H166.844C167.427 140.153 167.898 139.681 167.898 139.099C167.898 138.517 167.427 138.045 166.844 138.045Z" fill="#FFD3BB"/>
<path d="M158.828 136.499C158.828 138.517 160.464 140.153 162.482 140.153C164.499 140.153 166.135 138.517 166.135 136.499C166.135 134.482 164.499 132.846 162.482 132.846C160.464 132.846 158.828 134.482 158.828 136.499Z" stroke="#FF5B24" stroke-width="0.373762" stroke-miterlimit="10" stroke-linecap="round"/>
<path d="M165.679 145.826C167.687 145.826 169.329 144.259 169.449 142.281C169.456 142.155 169.351 142.049 169.224 142.049H162.134C162.008 142.049 161.902 142.155 161.91 142.281C162.029 144.259 163.671 145.826 165.679 145.826Z" fill="#551488"/>
<path d="M167.195 145.495C165.851 146.159 163.481 145.957 162.271 143.743C161.401 142.153 168.989 144.609 167.195 145.495Z" fill="#FF5B24"/>
<path d="M163.823 137.396C163.823 136.655 163.223 136.055 162.482 136.055C161.74 136.055 161.139 136.655 161.139 137.396" stroke="#551488" stroke-width="0.186881" stroke-miterlimit="10"/>
<path d="M171.327 137.396C171.327 136.655 170.726 136.055 169.984 136.055C169.243 136.055 168.642 136.655 168.642 137.396" stroke="#551488" stroke-width="0.186881" stroke-miterlimit="10"/>
<path d="M158.695 135.225H150.66" stroke="#FF5B24" stroke-width="0.373762" stroke-miterlimit="10" stroke-linecap="round"/>
<path d="M152.437 137.531C152.437 139.51 150.833 141.114 148.854 141.114C146.875 141.114 145.271 139.51 145.271 137.531C145.271 135.552 146.875 133.948 148.854 133.948C150.833 133.948 152.437 135.552 152.437 137.531Z" fill="#FFD3BB"/>
<path d="M150.347 141.114C150.347 141.939 149.679 142.607 148.854 142.607C148.03 142.607 147.361 141.939 147.361 141.114C147.361 140.29 148.03 139.621 148.854 139.621C149.679 139.621 150.347 140.29 150.347 141.114Z" fill="#FF5B24"/>
<path d="M185.073 199.719C178.408 199.719 172.997 205.13 172.997 211.795C172.997 218.459 178.408 223.871 185.073 223.871C191.737 223.871 197.148 218.459 197.148 211.795C197.148 205.13 191.737 199.719 185.073 199.719Z" fill="#FFD3BB"/>
<path d="M130.21 213.343C130.21 217.778 133.693 221.379 137.984 221.379H173.348C177.638 221.379 181.122 217.778 181.122 213.343C181.122 208.908 177.638 205.307 173.348 205.307H137.984C133.693 205.307 130.21 208.908 130.21 213.343Z" fill="#FFD3BB"/>
</g>
</g>
<defs>
<clipPath id="clip0_1122_50321">
<rect width="1281" height="374" fill="white"/>
</clipPath>
<clipPath id="clip1_1122_50321">
<rect width="21.3333" height="21.3333" fill="white" transform="translate(603.792 163.908) rotate(-10)"/>
</clipPath>
<clipPath id="clip2_1122_50321">
<rect width="21.3333" height="21.3333" fill="white" transform="translate(644.059 125.022) rotate(5)"/>
</clipPath>
</defs>
</svg>
